<svg width="63" height="30" viewBox="0 0 63 30" fill="none" xmlns="http://www.w3.org/2000/svg">
<g clip-path="url(#clip0_1873_4649)">
<path d="M34.3516 27.0002H35.8133C40.1984 26.782 43.268 23.3638 43.268 19.2911C43.268 17.9093 42.9757 16.5274 42.3179 15.4365H34.3516V27.0002Z" fill="#EDD0C6"/>
<path d="M33.6211 15.3633H26.3125V26.9996H33.6211V15.3633Z" fill="#EDD0C6"/>
<path d="M41.8794 14.6364C41.1485 13.6182 40.1253 12.8182 39.0291 12.2364C40.3446 11.2909 41.2216 9.76364 41.2216 8.09091C41.2216 5.25455 38.956 3 36.1056 3H34.3516V14.6364H41.8794Z" fill="#EDD0C6"/>
<path d="M33.6211 3H26.3125V14.6364H33.6211V3Z" fill="#EDD0C6"/>
<path d="M54.0859 27.0002H55.5477C59.9328 26.782 63.0024 23.3638 63.0024 19.2911C63.0024 17.9093 62.7101 16.5274 62.0523 15.4365H54.0859V27.0002Z" fill="#EDD0C6"/>
<path d="M53.3555 15.3633H46.0469V26.9996H53.3555V15.3633Z" fill="#EDD0C6"/>
<path d="M61.6138 14.6364C60.8829 13.6182 59.8597 12.8182 58.7634 12.2364C60.079 11.2909 60.956 9.76364 60.956 8.09091C60.956 5.25455 58.6903 3 55.84 3H54.0859V14.6364H61.6138Z" fill="#EDD0C6"/>
<path d="M53.3555 3H46.0469V14.6364H53.3555V3Z" fill="#EDD0C6"/>
<path d="M4.16589 15.3638L0 27.0001H6.06613L7.82019 21.9092H11.6937V15.3638H4.16589Z" fill="#EDD0C6"/>
<path d="M11.6914 3H8.54871L4.38281 14.6364H11.6914V3Z" fill="#EDD0C6"/>
<path d="M12.4219 21.9087H16.2954L18.0495 26.9996H24.1156L19.9497 15.3633H12.4219V21.9087Z" fill="#EDD0C6"/>
<path d="M19.7305 14.6364L15.5646 3H12.4219V14.6364H19.7305Z" fill="#EDD0C6"/>
</g>
<defs>
<clipPath id="clip0_1873_4649">
<rect width="63" height="30" fill="white"/>
</clipPath>
</defs>
</svg>
