<svg width="140" height="30" viewBox="0 0 140 30" fill="none" xmlns="http://www.w3.org/2000/svg">
<path d="M118.249 15.5128C118.507 12.2964 120.74 9.88938 123.617 9.88938C126.967 9.88938 128.642 12.5946 128.856 15.5128H118.249ZM123.918 23.7563C126.731 23.7563 128.47 22.6274 129.952 21.0298L128.985 20.1778C127.783 21.4558 126.237 22.457 123.982 22.457C121.126 22.457 118.528 20.3482 118.271 16.7483H130.338C130.359 16.514 130.36 16.4288 130.36 16.1732C130.36 11.8917 127.761 8.59001 123.66 8.59001C119.709 8.59001 116.746 11.9343 116.746 16.1306V16.1945C116.746 20.7316 120.074 23.7563 123.918 23.7563ZM108.651 23.4155H110.047V17.4938C110.047 12.7863 112.988 10.2515 116.36 10.2515H116.51V8.71782C113.611 8.61132 111.185 10.4858 110.047 13.0632V8.95213H108.651V23.4155ZM99.0528 22.457C96.8196 22.457 94.8227 21.2428 94.8227 19.134V19.0701C94.8227 17.0465 96.5405 15.6833 99.6325 15.6833C101.715 15.6833 103.347 16.0241 104.571 16.3436V17.9838C104.571 20.6464 102.016 22.457 99.0528 22.457ZM98.9669 23.7563C101.737 23.7563 103.54 22.3931 104.55 21.0085V23.4155H105.924V14.3839C105.924 12.5946 105.409 11.2526 104.442 10.2941C103.39 9.25034 101.801 8.69652 99.8472 8.69652C97.8503 8.69652 96.2613 9.20774 94.6724 9.95328L95.1877 11.1674C96.5405 10.4858 98.0006 9.99588 99.7613 9.99588C102.767 9.99588 104.571 11.5082 104.571 14.4265V15.0442C103.175 14.6821 101.758 14.4265 99.7399 14.4265C95.9607 14.4265 93.3626 16.1306 93.3626 19.134V19.1979C93.3196 22.2227 96.2399 23.7563 98.9669 23.7563ZM86.3411 23.7563C89.0251 23.7563 90.8074 22.5635 92.2889 20.8807L91.3227 20.0287C90.0988 21.3919 88.4883 22.4357 86.427 22.4357C83.0773 22.4357 80.4147 19.6452 80.4147 16.1732V16.1093C80.4147 12.6372 82.9914 9.88938 86.2982 9.88938C88.4669 9.88938 89.9055 10.997 91.1509 12.2751L92.1601 11.2526C90.7859 9.82547 89.0681 8.59001 86.3196 8.59001C82.154 8.59001 78.8902 12.1047 78.8902 16.1732V16.2371C78.9117 20.3056 82.154 23.7563 86.3411 23.7563ZM73.7368 23.4155H77.1939V2.71094H73.7368V23.4155ZM61.154 14.8738C61.4761 12.552 62.9577 10.9331 65.0834 10.9331C67.381 10.9331 68.6908 12.6585 68.927 14.8738H61.154ZM65.4699 23.7563C68.2399 23.7563 70.2153 22.6487 71.654 20.9446L69.6141 19.1553C68.4116 20.3269 67.2092 20.9446 65.5343 20.9446C63.3012 20.9446 61.562 19.5813 61.1969 17.1317H72.2982C72.3196 16.7909 72.3626 16.4714 72.3626 16.1732C72.3626 11.8704 69.9362 8.12139 65.1264 8.12139C60.8104 8.12139 57.7399 11.6361 57.7399 15.9176V15.9815C57.7184 20.6038 61.0896 23.7563 65.4699 23.7563ZM48.6785 19.3257C46.2951 19.3257 44.384 17.6429 44.384 15.1933V15.1294C44.384 12.6585 46.2736 11.0183 48.6785 11.0183C51.0834 11.0183 53.1233 12.7011 53.1233 15.1507V15.2146C53.1018 17.6429 51.0834 19.3257 48.6785 19.3257ZM48.3994 28.0165C51.1264 28.0165 53.2307 27.3562 54.6049 25.9929C55.8718 24.7362 56.5159 22.8617 56.5159 20.3482V8.41961H53.0589V10.6562C51.8779 9.27165 50.3104 8.10009 47.7767 8.10009C44.2552 8.10009 40.9055 10.7201 40.9055 15.1294V15.1933C40.9055 19.5813 44.2337 22.2014 47.7767 22.2014C50.2675 22.2014 51.835 21.0724 53.1018 19.4535V20.6251C53.1018 23.6285 51.4055 25.2261 48.335 25.2261C46.2736 25.2261 44.5558 24.6297 42.9669 23.6285L41.6785 26.2059C43.5896 27.3988 45.9086 28.0165 48.3994 28.0165ZM26.2184 23.4155H29.6755V14.959C29.6755 12.6372 31.0712 11.2313 33.0896 11.2313C35.1509 11.2313 36.3319 12.5733 36.3319 14.8951V23.4155H39.789V13.8727C39.789 10.3793 37.8135 8.12139 34.4209 8.12139C32.0804 8.12139 30.6632 9.33555 29.6969 10.7627V8.44091H26.2399V23.4155H26.2184ZM11.5528 15.5341L14.9883 7.58887L18.4454 15.5341H11.5528ZM4.5957 23.4155H8.20307L10.2644 18.6228H19.7337L21.7736 23.4155H25.4883L16.6847 3.41387H13.4209L4.5957 23.4155ZM132.421 9.93198C132.421 10.0811 132.313 10.2089 132.142 10.2089H131.712V9.65506H132.142C132.313 9.65506 132.421 9.76157 132.421 9.93198ZM132.657 9.93198C132.657 9.63376 132.442 9.44205 132.142 9.44205H131.476V11.0609H131.712V10.4219H131.991L132.399 11.0396H132.7L132.271 10.4006C132.378 10.4006 132.657 10.2728 132.657 9.93198ZM133.215 10.2515C133.215 10.9118 132.679 11.4443 132.013 11.4443C131.347 11.4443 130.81 10.9118 130.81 10.2515C130.81 9.59116 131.347 9.05864 132.013 9.05864C132.679 9.05864 133.215 9.59116 133.215 10.2515ZM132.013 8.84563C131.24 8.84563 130.596 9.48466 130.596 10.2515C130.596 11.0183 131.24 11.6574 132.013 11.6574C132.786 11.6574 133.43 11.0183 133.43 10.2515C133.43 9.46335 132.807 8.84563 132.013 8.84563Z" fill="#EDD0C6"/>
</svg>
