<svg width="207" height="30" viewBox="0 0 207 30" fill="none" xmlns="http://www.w3.org/2000/svg">
<path d="M37.6549 23.2025C33.4006 23.2025 31.0194 21.0424 31.0194 16.91V8.0816H34.7023V16.6595C34.7023 18.757 35.6547 20.0406 37.7501 20.0406C39.8138 20.0406 40.7662 18.757 40.7662 16.6595V8.0816H44.449V16.91C44.449 21.0737 41.9092 23.2025 37.6549 23.2025ZM95.5323 22.9521V8.0816H99.2151V22.9521H95.5323ZM133.789 22.9521V8.0816H143.822V11.2435H137.472V13.9046H143.282V16.91H137.472V19.8215H143.822V22.9521H133.789V22.9521ZM175.634 22.9521V8.0816H179.317V22.9521H175.634ZM188.968 22.9521V8.0816H199.001V11.2435H192.651V13.9046H198.429V16.91H192.619V19.8215H198.969V22.9521H188.968V22.9521ZM154.362 8.0816H159.918C161.918 8.0816 163.506 8.6138 164.522 9.5843C165.411 10.3983 165.887 11.5879 165.887 12.9967V13.028C165.887 15.1568 164.204 16.6595 163.157 17.1917L166.871 22.9521H162.68L159.982 18.0996H159.95H158.013V22.9521H154.362V8.0816V8.0816ZM159.696 15.3134C161.41 15.3134 162.363 14.4681 162.363 13.2158V13.1845C162.363 11.7757 161.315 11.0557 159.632 11.0557H158.013V15.3134H159.696ZM54.2593 8.05029H60.0693C61.8789 8.05029 63.3076 8.51988 64.2283 9.36515C64.9585 10.0539 65.3078 10.8679 65.3078 11.901V11.9323C65.3078 13.6228 64.1013 14.7811 62.8631 15.1568C64.7046 15.8143 65.8475 16.8161 65.8475 18.8197V18.851C65.8475 21.5746 63.4981 22.9521 59.9105 22.9521H54.2593V8.05029ZM59.3073 14.0924C60.863 14.0924 61.8154 13.6228 61.8154 12.5271V12.4958C61.8154 11.5253 60.99 10.9618 59.5296 10.9618H57.8469V14.1237H59.3073V14.0924ZM59.8788 20.1032C61.4345 20.1032 62.3552 19.6023 62.3552 18.4753V18.444C62.3552 17.4422 61.5615 16.8161 59.7518 16.8161H57.8151V20.1032H59.8788ZM80.4518 8.0816H79.8486L72.4512 22.9834H76.1975L77.3722 20.2911H82.8329L84.0076 22.9834H87.8492L80.4518 8.0816ZM78.5469 17.63L80.1343 14.0611L81.69 17.63H78.5469ZM16.5104 8.0816H15.9072L8.50977 22.9834H12.2561L13.4308 20.2911H18.8915L20.0662 22.9834H23.9078L16.5104 8.0816ZM14.6055 17.63L16.1929 14.0611L17.7486 17.63H14.6055ZM123.217 22.9521L123.249 8.0816H119.566V15.6264L110.264 8.05029H109.66V22.9521H113.343V15.3134L122.646 22.9521H123.217V22.9521Z" fill="#EDD0C6"/>
</svg>
