<svg width="127" height="30" viewBox="0 0 127 30" fill="none" xmlns="http://www.w3.org/2000/svg">
<g clip-path="url(#clip0_1873_4629)">
<path d="M17.8329 16.7678C17.3037 15.8838 16.6687 15.1558 15.8221 14.5318C18.2562 11.5158 17.78 7.0958 14.6579 4.7038C13.3879 3.7158 11.8533 3.1958 10.2129 3.1958H0V27.0118H12.1708C13.5996 26.8558 15.0283 26.3358 16.1396 25.4518C18.7854 23.3198 19.4733 19.6278 17.8329 16.7678ZM10.2129 13.0758H4.07458V7.1478H10.2658C11.9592 7.1478 13.335 8.4998 13.335 10.1638C13.2821 11.7758 11.9062 13.1278 10.2129 13.0758C10.2658 13.0758 10.2658 13.0758 10.2129 13.0758ZM14.6579 20.0958C14.6579 21.7598 13.2821 23.0598 11.5887 23.0598H4.07458V17.0798H11.5887C13.2821 17.0798 14.6579 18.4318 14.6579 20.0958Z" fill="#EDD0C6"/>
<path d="M25.8768 11.3081C25.6122 10.7881 25.3477 9.95605 25.3477 9.95605H21.3789V27.012H25.4535V18.796C25.4535 15.26 26.9881 13.5961 31.3802 13.7001V9.69605C27.9406 9.64405 26.6706 10.7881 25.8768 11.3081Z" fill="#EDD0C6"/>
<path d="M114.142 13.648C112.714 10.32 108.851 8.81197 105.517 10.164C104.935 10.424 104.353 10.736 103.876 11.152L103.4 10.008H99.4844V27.064H103.559V17.028C103.559 16.092 103.982 15.208 104.67 14.584C106.152 13.284 108.427 13.44 109.697 14.896C110.226 15.52 110.544 16.3 110.597 17.132V27.012H114.671V16.82C114.724 15.728 114.513 14.636 114.142 13.648Z" fill="#EDD0C6"/>
<path d="M127.001 23.0076C125.466 23.0076 123.667 22.1756 123.667 20.0956V13.9596H127.001V10.0076H123.667V4.80762H119.592V10.0076H116.629V13.9596H119.592V20.1476C119.592 22.5916 121.286 26.9596 127.001 27.0636V23.0076Z" fill="#EDD0C6"/>
<path d="M80.277 27.0118H84.6691L77.5253 10.3718C77.4195 10.1118 77.1549 9.9558 76.8903 9.9038H73.6624C73.292 9.9038 72.9216 10.1118 72.7628 10.4758L71.1224 14.2718L66.4657 3.5598C66.3599 3.2998 66.0953 3.1438 65.8307 3.0918H62.7086C62.4441 3.0918 62.1795 3.2998 62.0736 3.5598L57.8932 13.2318L56.6761 10.4238C56.5703 10.1638 56.3057 10.0078 56.0411 9.9558H52.4428C52.1782 9.9558 51.9136 10.1118 51.8078 10.4238L44.6641 27.0638H49.0561L53.9245 15.7278C53.9774 15.5198 54.242 15.4678 54.4007 15.5198C54.4007 15.5198 54.4007 15.5198 54.4536 15.5198C54.5595 15.5718 54.6124 15.6238 54.6653 15.7278L55.8295 18.3278L52.0724 27.0118H56.4645L57.9991 23.4758L59.5336 27.0118H63.9257L60.1686 18.3278L64.0316 9.4358C64.0845 9.2278 64.3491 9.1758 64.5078 9.2278C64.5078 9.2278 64.5078 9.2278 64.5607 9.2278C64.6666 9.2798 64.7195 9.3318 64.7724 9.4358L72.3395 27.0638H76.7316L73.4507 19.4718L74.9324 15.9878C75.0382 15.7798 75.2499 15.7278 75.4086 15.7798C75.4086 15.7798 75.4087 15.7798 75.4616 15.7798C75.5674 15.8318 75.6203 15.8838 75.6732 15.9878L80.277 27.0118Z" fill="#EDD0C6"/>
<path d="M88.213 9.33203C85.5671 9.33203 83.0801 10.476 81.3867 12.452L83.4505 17.184C83.9796 14.584 86.6255 12.92 89.2713 13.44C91.9171 13.96 93.6105 16.56 93.0813 19.16C92.605 21.396 90.5942 23.008 88.2659 22.956C87.3663 22.956 86.4667 22.748 85.673 22.28L87.6838 27.012H88.2659C93.2401 26.7 96.9971 22.488 96.6796 17.6C96.3092 13.18 92.7109 9.64403 88.213 9.33203Z" fill="#EDD0C6"/>
<path d="M40.9592 9.33203C43.6051 9.33203 46.0921 10.476 47.7855 12.452L45.7746 17.184C45.1926 14.584 42.5996 12.972 39.9538 13.544C37.308 14.116 35.6676 16.664 36.2496 19.264C36.8317 21.864 39.4246 23.476 42.0705 22.904C42.5996 22.8 43.1288 22.592 43.6051 22.28L41.5942 26.96H41.0121C36.038 27.064 31.9634 23.216 31.8576 18.38C31.7517 13.544 35.6676 9.48803 40.5888 9.38403C40.7476 9.33203 40.8534 9.33203 40.9592 9.33203Z" fill="#EDD0C6"/>
</g>
<defs>
<clipPath id="clip0_1873_4629">
<rect width="127" height="30" fill="white"/>
</clipPath>
</defs>
</svg>
