<svg width="30" height="30" viewBox="0 0 30 30" fill="none" xmlns="http://www.w3.org/2000/svg">
<g clip-path="url(#clip0_1885_5126)">
<path d="M14.9547 29.9988C6.41445 29.8944 -0.169527 23.143 0.00332659 14.5618C0.16583 6.49886 6.91438 -0.110805 15.2662 0.000907296C23.4152 0.110551 30.1058 6.94984 29.9982 15.1059C29.8884 23.4119 23.1337 30.0981 14.9536 29.9978L14.9547 29.9988ZM26.2326 14.1594C26.7502 14.1594 27.2666 14.1594 27.7842 14.1594C28.8316 14.1594 28.8182 14.1594 28.7551 13.1344C28.7333 12.7837 28.6267 12.7041 28.2831 12.7672C27.4995 12.912 26.7077 12.9534 25.9252 12.7423C24.8136 12.4434 24.5983 11.6873 25.3746 10.8401C25.8838 10.2847 26.4997 9.87506 27.1859 9.58233C27.572 9.41787 27.6465 9.23478 27.4602 8.84689C26.8185 7.50841 25.9107 6.37059 24.8933 5.30726C24.6687 5.07245 24.5279 5.16555 24.3478 5.35277C23.7847 5.93719 23.202 6.50299 22.4309 6.81434C21.5314 7.17741 20.8752 6.73469 20.8814 5.76548C20.8866 4.89661 21.2095 4.11565 21.6111 3.36987C21.785 3.04611 21.7105 2.87544 21.4186 2.7089C20.0813 1.94553 18.626 1.55868 17.1169 1.32801C16.8054 1.28043 16.7495 1.40559 16.7215 1.68177C16.648 2.38411 16.5414 3.08335 16.2247 3.72776C15.9752 4.23461 15.6181 4.62974 15.0147 4.64319C14.4061 4.65663 14.109 4.20771 13.8627 3.74018C13.5139 3.07714 13.3535 2.35411 13.2468 1.61867C13.2179 1.41697 13.2137 1.26078 12.9229 1.28871C11.2689 1.4511 9.71834 1.90933 8.30446 2.80613C7.9484 3.03163 7.97117 3.21989 8.19371 3.53227C8.59531 4.09497 8.90375 4.71042 9.03521 5.40242C9.13457 5.92374 9.08075 6.40576 8.67294 6.78124C8.26823 7.15465 7.80867 7.02846 7.36049 6.86709C6.59662 6.59195 5.99215 6.08097 5.40838 5.53999C5.2614 5.40345 5.14858 5.23071 4.91466 5.47482C3.81129 6.63022 2.84662 7.87251 2.2763 9.38787C2.1552 9.70956 2.20282 9.86885 2.54128 10.0002C3.25029 10.2754 3.91894 10.6343 4.47476 11.168C4.8422 11.5208 5.09165 11.9397 4.94157 12.4589C4.79977 12.9472 4.35366 13.1064 3.91273 13.2233C3.20164 13.4137 2.46675 13.4219 1.75774 13.2895C1.2516 13.1944 1.1688 13.3909 1.15224 13.7953C1.09013 15.351 1.15845 16.8964 1.55073 18.4107C2.4564 21.91 4.36194 24.6977 7.4464 26.6392C8.01775 26.9992 8.01982 26.994 8.30756 26.4034C8.87167 25.2417 9.41818 24.0719 10.0102 22.9258C10.2224 22.5151 10.1945 22.3186 9.78976 22.0331C8.21855 20.9284 6.9475 19.532 6.40927 17.6577C5.36284 14.0105 6.51382 10.8815 9.02072 8.23557C10.6282 6.5392 12.7821 6.04063 15.0779 6.082C19.1705 6.15648 23.2506 9.26685 23.6574 13.7912C23.6833 14.0808 23.7744 14.1688 24.058 14.1625C24.7815 14.146 25.506 14.1574 26.2306 14.1584L26.2326 14.1594ZM16.7629 18.3228C17.0155 18.1821 17.2214 18.0942 17.3974 17.9659C17.9563 17.5584 17.9139 16.884 17.3187 16.5313C17.0921 16.3968 16.8499 16.3234 16.5839 16.3213C15.8262 16.3182 15.0696 16.3192 14.3119 16.3006C14.0645 16.2944 13.9393 16.3875 13.8627 16.6171C13.4777 17.7746 13.0905 18.931 12.6848 20.0812C12.5875 20.3585 12.6807 20.4174 12.928 20.4143C13.754 20.405 14.58 20.4071 15.406 20.3916C15.8003 20.3843 16.1978 20.3667 16.5704 20.2064C17.0072 20.0171 17.3229 19.7171 17.4036 19.2331C17.4792 18.7769 17.1552 18.5566 16.7629 18.3218V18.3228ZM21.7508 20.4164C22.2076 20.4191 22.3743 20.2188 22.2508 19.8154C22.2156 19.7006 22.1794 19.5858 22.1442 19.471C21.9951 18.9896 22.1528 18.6393 22.6172 18.42C23.1295 18.178 23.4432 17.7001 23.3852 17.2502C23.3303 16.8209 22.9256 16.462 22.3688 16.3606C22.2177 16.3327 22.0614 16.3223 21.9071 16.3203C21.1671 16.312 20.426 16.3306 19.688 16.2975C19.3226 16.2809 19.1777 16.4268 19.0742 16.7557C18.7575 17.7539 18.4262 18.749 18.0661 19.7316C17.7856 20.4971 17.8197 20.406 18.596 20.4195C18.8216 20.4236 18.9427 20.3378 19.0059 20.1237C19.099 19.8113 19.2398 19.5113 19.3102 19.1948C19.392 18.8317 19.5669 18.7014 19.9488 18.7107C20.8359 18.7314 20.8369 18.7107 21.0636 19.561C21.0946 19.6768 21.1381 19.7916 21.1515 19.9106C21.1961 20.3057 21.3772 20.5147 21.7519 20.4195L21.7508 20.4164ZM26.1488 16.3275C26.1488 16.3213 26.1488 16.314 26.1488 16.3078C25.7534 16.3078 25.358 16.3099 24.9626 16.3068C24.7846 16.3047 24.6273 16.3068 24.5558 16.524C24.1573 17.7291 23.7506 18.931 23.349 20.134C23.319 20.223 23.2517 20.316 23.3893 20.3947C23.7371 20.5933 24.3664 20.3502 24.5062 19.9551C24.7884 19.16 25.3483 18.7617 26.186 18.7603C26.7698 18.7583 27.3608 18.7707 27.896 18.4811C28.4663 18.1718 28.7457 17.6825 28.6505 17.1964C28.5615 16.7485 28.0502 16.3678 27.4364 16.3316C27.0079 16.3068 26.5773 16.3265 26.1478 16.3265L26.1488 16.3275Z" fill="#EDD0C6"/>
<path d="M14.8316 19.7957C14.8141 19.7957 14.7975 19.7977 14.7799 19.7957C14.5015 19.7532 14.0937 19.9415 13.9715 19.6767C13.8463 19.4047 14.1216 19.0716 14.2199 18.7654C14.2386 18.7065 14.2976 18.6185 14.341 18.6165C14.9331 18.5865 15.5365 18.4685 16.1058 18.7302C16.2931 18.8161 16.3625 19.0023 16.3221 19.2092C16.2652 19.4947 16.0572 19.6643 15.8015 19.7191C15.4858 19.7863 15.1567 19.7874 14.8337 19.8163C14.8337 19.8101 14.8327 19.8029 14.8316 19.7967V19.7957Z" fill="#EDD0C6"/>
<path d="M15.2645 17.9836C15.0503 17.9484 14.6673 18.1046 14.5762 17.9143C14.45 17.6515 14.718 17.3423 14.8008 17.0485C14.8246 16.9626 14.8878 16.8933 14.983 16.8892C15.4633 16.8675 15.9466 16.8209 16.4135 16.974C16.5656 17.0237 16.6846 17.1416 16.6991 17.3102C16.7188 17.5388 16.5884 17.7002 16.4052 17.817C16.0636 18.0343 15.6775 17.9774 15.2656 17.9846L15.2645 17.9836Z" fill="#EDD0C6"/>
<path d="M20.7658 18.1117C20.714 18.1117 20.6623 18.1117 20.6115 18.1117C19.5982 18.1117 19.5972 18.1045 19.9957 17.187C20.0743 17.006 20.1675 16.916 20.3724 16.9222C20.7844 16.9346 21.1963 16.9222 21.6083 16.9325C21.9167 16.9408 22.2159 17.0153 22.2583 17.3814C22.3049 17.7828 22.0275 17.9845 21.689 18.0569C21.3909 18.121 21.0752 18.1055 20.7668 18.1252C20.7668 18.121 20.7668 18.1158 20.7668 18.1117H20.7658Z" fill="#EDD0C6"/>
<path d="M26.0812 18.1429C26.0636 18.1429 26.046 18.145 26.0295 18.1429C25.7624 18.1088 25.365 18.2784 25.2573 18.0374C25.1217 17.7333 25.3205 17.3082 25.5296 17.094C25.9105 16.703 26.4673 16.9844 26.9465 16.941C27.1784 16.9203 27.3927 17.0123 27.4982 17.2471C27.6462 17.5771 27.3906 17.9712 26.9559 18.0881C26.8896 18.1057 26.8203 18.1201 26.752 18.1212C26.5284 18.1253 26.3048 18.1232 26.0802 18.1232V18.1429H26.0812Z" fill="#EDD0C6"/>
</g>
<defs>
<clipPath id="clip0_1885_5126">
<rect width="30" height="30" fill="white"/>
</clipPath>
</defs>
</svg>
