<svg width="68" height="30" viewBox="0 0 68 30" fill="none" xmlns="http://www.w3.org/2000/svg">
<path d="M10.4293 22.4378H7.80112L8.08272 21.1448C8.13486 21.0291 8.13486 20.924 8.13486 20.8084C8.13486 20.1882 7.57167 20.0725 7.18578 20.0725C6.5183 20.0725 6.341 20.4089 6.17413 20.7453L4.94345 26.4429C4.89131 26.6111 4.89131 26.8423 4.89131 27.0105C4.89131 27.5782 5.55879 27.6307 5.78824 27.6307C6.5183 27.6307 6.73732 27.1787 6.85204 26.958C7.01891 26.3903 7.18578 25.7701 7.30051 25.213H10.0956L9.76186 26.7898C9.31339 28.7661 8.58333 29.5545 5.78824 29.5545C5.05818 29.5545 4.39069 29.5019 3.77535 29.2706C3.21216 29.0499 2.26308 28.4822 2.21094 27.3574C2.21094 27.1892 2.21094 26.8528 2.42996 25.7806L3.37904 21.1027C3.71278 19.5785 4.1091 19.0108 4.60971 18.6744C5.39192 18.1068 6.68517 18.0542 7.4048 18.0542C8.12443 18.0542 9.0318 18.1698 9.58456 18.3906C10.1477 18.6113 10.8674 19.1264 10.8674 20.3038C10.8674 20.5876 10.8674 20.8084 10.8152 21.0922C10.8152 21.0817 10.4293 22.4378 10.4293 22.4378ZM32.9257 26.4429C32.8109 27.1787 32.6441 27.9146 32.1435 28.5348C31.5281 29.3232 30.4122 29.607 29.2858 29.607C28.5557 29.607 26.0944 29.4388 25.9797 27.3469C25.9275 26.2747 26.7619 22.9423 26.8244 22.8372C27.4398 20.924 29.1189 20.7453 30.2974 20.7453C32.1956 20.7453 33.3741 21.5337 33.4367 22.8898C33.4367 23.2892 33.3846 23.6782 33.2698 24.0776H30.7459C30.8606 23.6782 30.9649 23.2262 30.9128 23.0054C30.9128 22.669 30.6312 22.4378 30.2453 22.4378C29.5152 22.4378 29.3484 22.9423 29.2336 23.51L28.5662 26.8423V27.1262C28.5662 27.2418 28.6183 27.41 28.6809 27.5256C28.8477 27.6938 29.0772 27.8095 29.2962 27.8095C30.0263 27.8095 30.141 27.2418 30.3079 26.4008C30.2974 26.3798 32.9257 26.4429 32.9257 26.4429ZM46.922 21.7545C46.5257 20.8504 45.4619 20.6822 44.9091 20.6822C43.1152 20.6822 42.7293 21.9752 42.3852 23.0475C42.2704 23.3313 41.4882 26.8844 41.4882 27.7254C41.5404 29.2496 42.9484 29.4178 43.3864 29.4178C44.5023 29.4178 45.1177 28.682 45.4619 28.2299L45.2428 29.2496H47.9858L50.3324 18.1909H47.7042L46.922 21.7545ZM45.8582 26.7267C45.7435 27.1787 45.6392 27.9146 44.9091 27.9146C44.5754 27.9146 44.2416 27.7989 44.2416 27.2944C44.2416 27.0736 44.2938 26.8423 44.3563 26.6216L45.0238 23.4574C45.1385 23.0054 45.2428 22.3852 45.9208 22.3852C46.4214 22.3852 46.5882 22.669 46.6508 23.058C46.6508 23.1736 46.6508 23.3418 46.5987 23.4574L45.8582 26.7267ZM54.0349 26.6111C53.868 27.3469 53.8158 27.7989 53.0232 27.7989C52.6895 27.7989 52.4079 27.6833 52.2931 27.4626L52.241 27.2418C52.241 26.9054 52.3557 26.1696 52.46 25.7175H56.6631C56.83 25.0448 56.9447 24.4771 57.0594 23.8569C57.1115 23.5205 57.1741 23.121 57.1741 22.7847C57.122 20.924 55.0465 20.7558 53.9827 20.7558C51.5735 20.7558 50.906 21.8281 50.6244 22.5008C50.3428 23.121 49.6128 26.2221 49.6754 27.3574C49.6754 28.2615 50.0717 28.7135 50.4576 28.9973C51.2398 29.565 52.4704 29.6175 52.9189 29.6175C54.4833 29.6175 55.3281 29.1655 55.8287 28.5979C56.3293 28.0302 56.4962 27.3049 56.6735 26.6847C56.6631 26.6636 54.0349 26.6111 54.0349 26.6111ZM52.8042 24.1828C53.0232 22.9423 53.0858 22.3747 53.9201 22.3747C54.1392 22.3747 54.3686 22.4272 54.5355 22.5954C54.6502 22.7111 54.7023 22.8793 54.7023 22.9949C54.6502 23.3944 54.5876 23.7833 54.5355 24.1197L52.8042 24.1828ZM13.6729 27.9041C13.2244 27.9041 13.1097 27.6833 13.0576 27.3995C13.0576 27.2313 13.1723 26.3272 13.5582 25.9909C13.8398 25.7701 14.622 25.5388 15.2373 25.3706L14.7367 27.3995C14.4551 27.6202 14.1214 27.9041 13.6729 27.9041ZM16.9165 29.3127L18.1471 23.4995C18.1993 23.2157 18.2619 22.8793 18.2619 22.5429C18.2097 21.0712 16.6349 20.7348 15.1226 20.7348C14.1735 20.7348 13.3287 20.8504 12.776 21.1868C11.9938 21.5863 11.8269 22.0909 11.4931 23.4995H14.0171C14.2361 22.648 14.3508 22.259 15.0809 22.259C15.3625 22.259 15.8109 22.3116 15.8109 22.7111L15.6441 23.7307C12.5674 24.5822 11.7852 24.803 11.2741 25.4232C10.7735 26.0434 10.4293 27.5151 10.4919 28.0197C10.5441 29.544 12.1189 29.544 12.2858 29.544C13.2974 29.544 14.0171 28.9237 14.6324 28.4717L14.4134 29.3758C14.403 29.3758 16.9165 29.3127 16.9165 29.3127ZM36.7324 27.9041C36.2839 27.9041 36.1692 27.6833 36.1171 27.3995C36.1171 27.2313 36.2318 26.3272 36.6177 25.9909C36.8993 25.7701 37.6815 25.5388 38.2968 25.3706L37.7962 27.3995C37.5772 27.6202 37.2435 27.9041 36.7324 27.9041ZM39.9864 29.3127L41.2171 23.4995C41.2692 23.2157 41.3318 22.8793 41.3318 22.5429C41.2796 21.0712 39.7048 20.7348 38.1925 20.7348C37.2435 20.7348 36.3987 20.8504 35.8459 21.1868C35.0637 21.5863 34.8968 22.0909 34.5631 23.4995H37.087C37.306 22.648 37.4208 22.259 38.1508 22.259C38.4324 22.259 38.8809 22.3116 38.8809 22.7111L38.714 23.7307C35.6373 24.5822 34.8551 24.803 34.3441 25.4232C33.8435 26.0434 33.4993 27.5151 33.5619 28.0197C33.614 29.544 35.1889 29.544 35.3557 29.544C36.3674 29.544 37.087 28.9237 37.7023 28.4717L37.4833 29.3758C37.4625 29.3758 39.9864 29.3127 39.9864 29.3127ZM25.6563 23.5626C25.7085 23.2787 25.7711 22.9949 25.7711 22.7111C25.7189 21.4181 24.3735 20.7979 22.6318 20.7979C21.1717 20.7979 20.1079 21.2499 19.6698 22.0383C19.4508 22.5429 19.2735 23.058 19.2735 23.6151C19.2735 24.2353 19.6698 24.6874 20.2852 25.1394C20.3373 25.1919 21.7453 26.096 22.0165 26.3272C22.2355 26.4954 22.3502 26.6111 22.3502 26.8949C22.3502 27.1157 22.2981 27.5151 22.0165 27.7464C21.8496 27.7989 21.6827 27.862 21.568 27.862C21.2864 27.862 20.9005 27.7464 20.9005 27.3574C20.9005 27.1367 20.9527 26.8528 21.0152 26.6216H18.4913C18.3766 26.9054 18.3244 27.2418 18.3766 27.5256C18.3766 28.3771 18.7729 28.8186 19.6594 29.2181C19.8784 29.3337 20.4416 29.5545 21.7349 29.5545C23.2993 29.5545 24.1441 29.0499 24.5925 28.5979C25.041 28.1458 25.2079 27.1262 25.2079 26.6216C25.2079 25.7175 24.5925 25.3286 23.4766 24.5927C23.3619 24.5402 22.5796 23.9725 22.5275 23.9725C22.1938 23.7518 22.0269 23.5731 22.0269 23.2998C22.0269 23.2472 22.0269 22.5113 22.8091 22.5113C23.4244 22.5113 23.4766 22.9108 23.4766 22.9634C23.4766 23.1841 23.4244 23.4154 23.3619 23.6361C23.3619 23.6151 25.6563 23.5626 25.6563 23.5626ZM64.6625 23.5626C64.7146 23.2787 64.7772 22.9949 64.7772 22.7111C64.725 21.4181 63.3796 20.7979 61.6379 20.7979C60.1778 20.7979 59.114 21.2499 58.676 22.0383C58.4569 22.5429 58.2796 23.058 58.2796 23.6151C58.2796 24.2353 58.676 24.6874 59.2913 25.1394C59.3435 25.1919 60.7514 26.096 61.0226 26.3272C61.2416 26.4954 61.3563 26.6111 61.3563 26.8949C61.3563 27.1157 61.3042 27.5151 61.0226 27.7464C60.8557 27.7989 60.6888 27.862 60.5741 27.862C60.2925 27.862 59.9066 27.7464 59.9066 27.3574C59.9066 27.1367 59.9588 26.8528 60.0214 26.6216H57.4974C57.3827 26.9054 57.3306 27.2418 57.3827 27.5256C57.3827 28.3771 57.779 28.8186 58.6655 29.2181C58.8846 29.3337 59.4477 29.5545 60.741 29.5545C62.3054 29.5545 63.2023 29.0499 63.5987 28.5979C63.995 28.0933 64.214 27.1262 64.214 26.6216C64.214 25.7175 63.5987 25.3286 62.4827 24.5927C62.368 24.5402 61.5858 23.9725 61.5336 23.9725C61.1999 23.7518 61.033 23.5731 61.033 23.2998C61.033 23.2472 61.033 22.5113 61.8152 22.5113C62.4306 22.5113 62.4827 22.9108 62.4827 22.9634C62.4827 23.1841 62.4306 23.4154 62.368 23.6361C62.368 23.6151 64.6625 23.5626 64.6625 23.5626ZM47.652 15.3841C45.1907 14.2593 44.2938 12.3987 43.6263 10.9795L39.8717 3.53695C38.4115 0.551503 36.5134 0.604065 35.4496 0.604065H23.6956C20.2226 0.604065 19.3257 3.76822 19.3257 5.56579C19.3257 8.55123 20.8379 12.22 26.6576 12.283C26.7723 12.283 26.7723 12.2305 26.6576 12.1674C23.4662 10.6957 21.8392 7.48951 21.8392 4.89301C21.8392 3.03237 22.6839 1.22428 24.1858 1.22428C25.7502 1.22428 26.595 2.58034 27.0435 3.48439L30.7981 10.99C31.3612 12.0623 33.1447 15.4472 35.9502 15.4472H47.5895C47.7042 15.4998 47.7042 15.4367 47.652 15.3841ZM24.8741 4.66175C24.3735 4.66175 23.925 5.16633 23.925 5.95474C23.925 6.85878 24.4257 7.76282 25.4895 7.76282C25.041 7.42644 24.822 6.85878 24.822 6.3542C24.822 5.3976 25.552 5.2294 25.8858 5.39759C25.8754 5.34503 25.5416 4.66175 24.8741 4.66175Z" fill="#EDD0C6"/>
</svg>
