<svg width="108" height="30" viewBox="0 0 108 30" fill="none" xmlns="http://www.w3.org/2000/svg">
<path d="M35.6941 2.533C32.7972 2.45961 29.9777 3.47846 27.7893 5.38943C25.6009 7.30041 24.2018 9.96544 23.8667 12.8611H20.2012C19.4198 6.18387 14.7315 3.05094 7.77208 3.05094H0V27.0584H7.73822C14.9286 27.0584 19.7297 23.1953 20.2663 16.2447H23.7833C24.3589 23.2119 29.4665 27.4698 35.6941 27.4698C42.2056 27.4698 47.6604 22.6346 47.6604 14.9171C47.6596 7.16297 42.1708 2.533 35.6941 2.533ZM7.3293 23.6591H3.95463V6.4424H7.3293C13.398 6.4424 16.2266 9.52905 16.2266 14.9145C16.2266 20.3 13.3989 23.6591 7.3293 23.6591ZM35.6941 23.9334C31.262 23.9334 27.8864 20.3332 27.8864 14.9136C27.8864 9.4941 31.2611 6.06509 35.6941 6.06509C40.0915 6.06509 43.5009 9.49498 43.5009 14.9136C43.5009 20.3672 40.1592 23.9334 35.6941 23.9334Z" fill="#EDD0C6"/>
<path d="M58.4101 14.0233L52.2052 3.04883H47.6367L56.2961 18.0017V27.0555H60.2481V18.0017L68.9075 3.04883H64.6117L58.4101 14.0233Z" fill="#EDD0C6"/>
<path d="M76.2671 3.04785H72.3125V27.0554H87.5849V23.6604H76.2671V3.04785Z" fill="#EDD0C6"/>
<path d="M94.9403 23.6605V16.2522H106.835V12.8573H94.9403V6.44379H107.758V3.04883H91.0195V27.0563H107.997V23.6614L94.9403 23.6605Z" fill="#EDD0C6"/>
</svg>
