<svg xmlns="http://www.w3.org/2000/svg" viewBox="0 0 400 300" width="400" height="300"
    preserveAspectRatio="xMidYMid meet"
>
    <defs>
        <clipPath id="__lottie_element_4463">
            <rect width="400" height="300" x="0" y="0"></rect>
        </clipPath>
        <mask id="__lottie_element_4464" mask-type="alpha">
            <g transform="matrix(1,0,0,1,251,182.2989959716797)" opacity="1">
                <g opacity="1" transform="matrix(1,0,0,1,0,0)">
                    <path stroke-linecap="butt" stroke-linejoin="miter" fill-opacity="0"
                        stroke-miterlimit="4" stroke="rgb(134,59,50)" stroke-opacity="1"
                        stroke-width="1"
                        d=" M108,-5.570000171661377 C68.5,-48.06999969482422 39.5,-4.298999786376953 29,6.429999828338623 C16.29599952697754,19.410999298095703 -13,37.93000030517578 -44.5,6.429999828338623 C-71,-20.06999969482422 -97.33300018310547,-4.070000171661377 -108,6.429999828338623"></path>
                </g>
            </g>
        </mask>
        <linearGradient id="__lottie_element_4476" spreadMethod="pad" gradientUnits="userSpaceOnUse"
            x1="116.33000183105469" y1="61.28900146484375" x2="-196.2729949951172"
            y2="-101.70099639892578">
            <stop offset="0%" stop-color="rgb(255,104,44)"></stop>
            <stop offset="50%" stop-color="rgb(159,67,37)"></stop>
            <stop offset="100%" stop-color="rgb(64,29,31)"></stop>
        </linearGradient>
        <mask id="__lottie_element_4477" mask-type="alpha">
            <g transform="matrix(1,0,0,-1,78,150.5)" opacity="1">
                <g opacity="1" transform="matrix(1,0,0,1,0,0)">
                    <path stroke="url(#__lottie_element_4480)" stroke-linecap="butt"
                        stroke-linejoin="miter" fill-opacity="0" stroke-miterlimit="4"
                        stroke-opacity="1" stroke-width="1"
                        d=" M-48,-89.5 C-48,-91.70760345458984 -46.20759963989258,-93.5 -44,-93.5 C-44,-93.5 44,-93.5 44,-93.5 C46.20759963989258,-93.5 48,-91.70760345458984 48,-89.5 C48,-89.5 48,89.5 48,89.5 C48,91.70760345458984 46.20759963989258,93.5 44,93.5 C44,93.5 -44,93.5 -44,93.5 C-46.20759963989258,93.5 -48,91.70760345458984 -48,89.5 C-48,89.5 -48,-89.5 -48,-89.5z"></path>
                </g>
            </g>
        </mask>
        <linearGradient id="__lottie_element_4480" spreadMethod="pad" gradientUnits="userSpaceOnUse"
            x1="0" y1="0" x2="63.43199920654297" y2="123.1500015258789">
            <stop offset="0%" stop-color="rgb(255,104,44)"></stop>
            <stop offset="50%" stop-color="rgb(159,67,37)"></stop>
            <stop offset="100%" stop-color="rgb(64,29,31)"></stop>
        </linearGradient>
        <linearGradient id="__lottie_element_4487" spreadMethod="pad" gradientUnits="userSpaceOnUse"
            x1="0" y1="0" x2="63.43199920654297" y2="123.1500015258789">
            <stop offset="0%" stop-color="rgb(255,104,44)"></stop>
            <stop offset="50%" stop-color="rgb(159,67,37)"></stop>
            <stop offset="100%" stop-color="rgb(64,29,31)"></stop>
        </linearGradient>
        <linearGradient id="__lottie_element_4494" spreadMethod="pad" gradientUnits="userSpaceOnUse"
            x1="-35.178001403808594" y1="28.386999130249023" x2="53.83000183105469"
            y2="-59.18199920654297">
            <stop offset="0%" stop-color="rgb(255,104,44)"></stop>
            <stop offset="50%" stop-color="rgb(159,67,37)"></stop>
            <stop offset="100%" stop-color="rgb(64,29,31)"></stop>
        </linearGradient>
    </defs>
    <g clip-path="url(#__lottie_element_4463)">
        <g transform="matrix(1,0,0,-1,170.5,85.5)" opacity="1">
            <g opacity="1" transform="matrix(1,0,0,1,0,0)">
                <path stroke-linecap="butt" stroke-linejoin="miter" fill-opacity="0"
                    stroke-miterlimit="4" stroke="rgb(133,58,49)" stroke-opacity="1"
                    stroke-width="1"
                    d=" M-36.5,0 C-36.5,-15.72914981842041 -23.729150772094727,-28.5 -8,-28.5 C-8,-28.5 8,-28.5 8,-28.5 C23.729150772094727,-28.5 36.5,-15.72914981842041 36.5,0 C36.5,0 36.5,0 36.5,0 C36.5,15.72914981842041 23.729150772094727,28.5 8,28.5 C8,28.5 -8,28.5 -8,28.5 C-23.729150772094727,28.5 -36.5,15.72914981842041 -36.5,0 C-36.5,0 -36.5,0 -36.5,0z"></path>
            </g>
        </g>
        <g transform="matrix(1,0,0,-1,251,85.5)" opacity="1">
            <g opacity="1" transform="matrix(1,0,0,1,0,0)">
                <path stroke="url(#__lottie_element_4494)" stroke-linecap="butt"
                    stroke-linejoin="miter" fill-opacity="0" stroke-miterlimit="4"
                    stroke-opacity="1" stroke-width="1"
                    d=" M-37,-24.5 C-37,-26.707599639892578 -35.20759963989258,-28.5 -33,-28.5 C-33,-28.5 33,-28.5 33,-28.5 C35.20759963989258,-28.5 37,-26.707599639892578 37,-24.5 C37,-24.5 37,24.5 37,24.5 C37,26.707599639892578 35.20759963989258,28.5 33,28.5 C33,28.5 -33,28.5 -33,28.5 C-35.20759963989258,28.5 -37,26.707599639892578 -37,24.5 C-37,24.5 -37,-24.5 -37,-24.5z"></path>
            </g>
        </g>
        <g transform="matrix(1,0,0,-1,331,85.5)" opacity="1">
            <g opacity="1" transform="matrix(1,0,0,1,0,0)">
                <path stroke-linecap="butt" stroke-linejoin="miter" fill-opacity="0"
                    stroke-miterlimit="4" stroke="rgb(133,58,49)" stroke-opacity="1"
                    stroke-width="1"
                    d=" M-36,-24.5 C-36,-26.707599639892578 -34.20759963989258,-28.5 -32,-28.5 C-32,-28.5 32,-28.5 32,-28.5 C34.20759963989258,-28.5 36,-26.707599639892578 36,-24.5 C36,-24.5 36,24.5 36,24.5 C36,26.707599639892578 34.20759963989258,28.5 32,28.5 C32,28.5 -32,28.5 -32,28.5 C-34.20759963989258,28.5 -36,26.707599639892578 -36,24.5 C-36,24.5 -36,-24.5 -36,-24.5z"></path>
            </g>
        </g>
        <g transform="matrix(1,0,0,-1,78,150.5)" opacity="1">
            <g opacity="1" transform="matrix(1,0,0,1,0,0)">
                <path stroke="url(#__lottie_element_4487)" stroke-linecap="butt"
                    stroke-linejoin="miter" fill-opacity="0" stroke-miterlimit="4"
                    stroke-opacity="1" stroke-width="1"
                    d=" M-48,-89.5 C-48,-91.70760345458984 -46.20759963989258,-93.5 -44,-93.5 C-44,-93.5 44,-93.5 44,-93.5 C46.20759963989258,-93.5 48,-91.70760345458984 48,-89.5 C48,-89.5 48,89.5 48,89.5 C48,91.70760345458984 46.20759963989258,93.5 44,93.5 C44,93.5 -44,93.5 -44,93.5 C-46.20759963989258,93.5 -48,91.70760345458984 -48,89.5 C-48,89.5 -48,-89.5 -48,-89.5z"></path>
            </g>
        </g>
        <g mask="url(#__lottie_element_4477)">
            <g transform="matrix(1,0,0,1,112.5,219.8126220703125)" opacity="1">
                <g opacity="1" transform="matrix(1,0,0,1,-81.69000244140625,-93.04499816894531)">
                    <path fill="rgb(233,106,53)" fill-opacity="1"
                        d=" M5.809500217437744,-7.204999923706055 C5.809500217437744,-7.204999923706055 5.809500217437744,7.204999923706055 5.809500217437744,7.204999923706055 C5.809500217437744,7.204999923706055 -5.809500217437744,7.204999923706055 -5.809500217437744,7.204999923706055 C-5.809500217437744,7.204999923706055 -5.809500217437744,-7.204999923706055 -5.809500217437744,-7.204999923706055 C-5.809500217437744,-7.204999923706055 5.809500217437744,-7.204999923706055 5.809500217437744,-7.204999923706055z"></path>
                </g>
            </g>
        </g>
        <g transform="matrix(1,0,0,-1,250.5,182.5)" opacity="1">
            <g opacity="1" transform="matrix(1,0,0,1,0,0)">
                <path stroke="url(#__lottie_element_4476)" stroke-linecap="butt"
                    stroke-linejoin="miter" fill-opacity="0" stroke-miterlimit="4"
                    stroke-opacity="1" stroke-width="1"
                    d=" M-116.5,-57.5 C-116.5,-59.70759963989258 -114.70760345458984,-61.5 -112.5,-61.5 C-112.5,-61.5 112.5,-61.5 112.5,-61.5 C114.70760345458984,-61.5 116.5,-59.70759963989258 116.5,-57.5 C116.5,-57.5 116.5,57.5 116.5,57.5 C116.5,59.70759963989258 114.70760345458984,61.5 112.5,61.5 C112.5,61.5 -112.5,61.5 -112.5,61.5 C-114.70760345458984,61.5 -116.5,59.70759963989258 -116.5,57.5 C-116.5,57.5 -116.5,-57.5 -116.5,-57.5z"></path>
            </g>
        </g>
        <g transform="matrix(1,0,0,1,251,182.2989959716797)" opacity="1">
            <g opacity="1" transform="matrix(1,0,0,1,0,0)">
                <path stroke-linecap="butt" stroke-linejoin="miter" fill-opacity="0"
                    stroke-miterlimit="4" stroke="rgb(134,59,50)" stroke-opacity="1"
                    stroke-width="1"
                    d=" M108,-5.570000171661377 C68.5,-48.06999969482422 39.5,-4.298999786376953 29,6.429999828338623 C16.29599952697754,19.410999298095703 -13,37.93000030517578 -44.5,6.429999828338623 C-71,-20.06999969482422 -97.33300018310547,-4.070000171661377 -108,6.429999828338623"></path>
            </g>
        </g>
        <g mask="url(#__lottie_element_4464)">
            <g transform="matrix(1,0,0,1,421.05401611328125,145.21099853515625)" opacity="1">
                <g opacity="1" transform="matrix(1,0,0,1,-54.05400085449219,36.768001556396484)">
                    <path fill="rgb(233,106,53)" fill-opacity="1"
                        d=" M5.446000099182129,-9.767999649047852 C5.446000099182129,-9.767999649047852 5.446000099182129,9.767999649047852 5.446000099182129,9.767999649047852 C5.446000099182129,9.767999649047852 -5.446000099182129,9.767999649047852 -5.446000099182129,9.767999649047852 C-5.446000099182129,9.767999649047852 -5.446000099182129,-9.767999649047852 -5.446000099182129,-9.767999649047852 C-5.446000099182129,-9.767999649047852 5.446000099182129,-9.767999649047852 5.446000099182129,-9.767999649047852z"></path>
                </g>
            </g>
        </g>
    </g>
</svg>