<svg xmlns="http://www.w3.org/2000/svg" viewBox="0 0 400 300" width="400" height="300"
    preserveAspectRatio="xMidYMid meet"
>
    <defs>
        <clipPath id="__lottie_element_4610">
            <rect width="400" height="300" x="0" y="0"></rect>
        </clipPath>
        <linearGradient id="__lottie_element_4674" spreadMethod="pad" gradientUnits="userSpaceOnUse"
            x1="0" y1="0" x2="42.89899826049805" y2="-13.222999572753906">
            <stop offset="0%" stop-color="rgb(255,104,44)"></stop>
            <stop offset="50%" stop-color="rgb(159,67,34)"></stop>
            <stop offset="100%" stop-color="rgb(64,29,25)"></stop>
        </linearGradient>
        <linearGradient id="__lottie_element_4678" spreadMethod="pad" gradientUnits="userSpaceOnUse"
            x1="0" y1="0" x2="42.89899826049805" y2="-13.222999572753906">
            <stop offset="0%" stop-color="rgb(255,104,44)"></stop>
            <stop offset="50%" stop-color="rgb(159,67,34)"></stop>
            <stop offset="100%" stop-color="rgb(64,29,25)"></stop>
        </linearGradient>
        <linearGradient id="__lottie_element_4682" spreadMethod="pad" gradientUnits="userSpaceOnUse"
            x1="0" y1="0" x2="-19.058000564575195" y2="-92.2229995727539">
            <stop offset="0%" stop-color="rgb(255,104,44)"></stop>
            <stop offset="50%" stop-color="rgb(159,67,34)"></stop>
            <stop offset="100%" stop-color="rgb(64,29,25)"></stop>
        </linearGradient>
        <linearGradient id="__lottie_element_4686" spreadMethod="pad" gradientUnits="userSpaceOnUse"
            x1="-9.786999702453613" y1="6.070000171661377" x2="96.75399780273438"
            y2="81.81600189208984">
            <stop offset="0%" stop-color="rgb(255,104,44)"></stop>
            <stop offset="50%" stop-color="rgb(159,67,34)"></stop>
            <stop offset="100%" stop-color="rgb(64,29,25)"></stop>
        </linearGradient>
    </defs>
    <g clip-path="url(#__lottie_element_4610)">
        <g transform="matrix(1,0,0,1,199.5,149.5)" opacity="1">
            <g opacity="1" transform="matrix(1,0,0,1,0,0)">
                <path stroke="url(#__lottie_element_4686)" stroke-linecap="butt"
                    stroke-linejoin="miter" fill-opacity="0" stroke-miterlimit="4"
                    stroke-opacity="1" stroke-width="1"
                    d=" M0,-86.5 C48.59600067138672,-86.5 86.5,-48.59600067138672 86.5,0 C86.5,48.59600067138672 48.59600067138672,86.5 0,86.5 C-48.59600067138672,86.5 -86.5,48.59600067138672 -86.5,0 C-86.5,-48.59600067138672 -48.59600067138672,-86.5 0,-86.5z"></path>
            </g>
        </g>
        <g transform="matrix(1,0,0,1,199.66799926757812,149.5)" opacity="1">
            <g opacity="1" transform="matrix(0.5,0.8660253882408142,-0.8660253882408142,0.5,0,0)">
                <path stroke="url(#__lottie_element_4682)" stroke-linecap="butt"
                    stroke-linejoin="miter" fill-opacity="0" stroke-miterlimit="4"
                    stroke-opacity="1" stroke-width="1"
                    d=" M0,-60.66899871826172 C34.08399963378906,-60.66899871826172 60.66899871826172,-34.08399963378906 60.66899871826172,0 C60.66899871826172,34.08399963378906 34.08399963378906,60.66899871826172 0,60.66899871826172 C-34.08399963378906,60.66899871826172 -60.66899871826172,34.08399963378906 -60.66899871826172,0 C-60.66899871826172,-34.08399963378906 -34.08399963378906,-60.66899871826172 0,-60.66899871826172z"></path>
            </g>
        </g>
        <g transform="matrix(-1,0,0,-1,199.66799926757812,149.5)" opacity="1">
            <g opacity="1"
                transform="matrix(0.8117982745170593,-0.5839380025863647,0.5839380025863647,0.8117982745170593,0,0)">
                <path stroke="url(#__lottie_element_4678)" stroke-linecap="butt"
                    stroke-linejoin="miter" fill-opacity="0" stroke-miterlimit="4"
                    stroke-opacity="1" stroke-width="1"
                    d=" M0,-36.52000045776367 C20.517000198364258,-36.52000045776367 36.52000045776367,-20.517000198364258 36.52000045776367,0 C36.52000045776367,20.517000198364258 20.517000198364258,36.52000045776367 0,36.52000045776367 C-20.517000198364258,36.52000045776367 -36.52000045776367,20.517000198364258 -36.52000045776367,0 C-36.52000045776367,-20.517000198364258 -20.517000198364258,-36.52000045776367 0,-36.52000045776367z"></path>
            </g>
        </g>
        <g
            transform="matrix(-0.9997565150260925,0.022066447883844376,-0.022066447883844376,-0.9997565150260925,199.66799926757812,149.5)"
            opacity="0.19400000000388218" style="display: none;">
            <g opacity="1"
                transform="matrix(0.8117982745170593,-0.5839380025863647,0.5839380025863647,0.8117982745170593,0,0)">
                <path stroke="url(#__lottie_element_4674)" stroke-linecap="butt"
                    stroke-linejoin="miter" fill-opacity="0" stroke-miterlimit="4"
                    stroke-opacity="1" stroke-width="1"
                    d=" M6.5279998779296875,35.965999603271484 C4.414999961853027,36.33100128173828 2.2339999675750732,36.52000045776367 0,36.52000045776367"></path>
            </g>
        </g>
        <g
            transform="matrix(-0.8396093249320984,-0.5431907773017883,0.5431907773017883,-0.8396093249320984,200.16799926757812,149.5)"
            opacity="0.028000000004794856" style="display: none;">
            <g opacity="1"
                transform="matrix(0.5,0.8660253882408142,-0.8673937320709229,0.500789999961853,0.32499998807907104,0.36899998784065247)">
                <path stroke-linecap="butt" stroke-linejoin="miter" fill-opacity="0"
                    stroke-miterlimit="4" stroke="rgb(255,104,44)" stroke-opacity="1"
                    stroke-width="1"
                    d=" M0,-60.66899871826172 C3.5,-60.66899871826172 6.920000076293945,-60.388999938964844 10.241000175476074,-59.8489990234375"></path>
            </g>
        </g>
        <g
            transform="matrix(0.9999988079071045,0.0015335174975916743,-0.0015335174975916743,0.9999988079071045,200,149.5)"
            opacity="0.026999999999418378" style="display: none;">
            <g opacity="1" transform="matrix(1,0,0,1,0,0)">
                <path stroke-linecap="butt" stroke-linejoin="miter" fill-opacity="0"
                    stroke-miterlimit="4" stroke="rgb(255,104,44)" stroke-opacity="1"
                    stroke-width="1"
                    d=" M0,-86.5 C3.8340001106262207,-86.5 7.60099983215332,-86.26399993896484 11.288000106811523,-85.80599975585938"></path>
            </g>
        </g>
        <g transform="matrix(1,0,0,1,88,46)" opacity="1">
            <g opacity="1" transform="matrix(1,0,0,1,0,0)">
                <path fill="rgb(134,59,50)" fill-opacity="1"
                    d=" M0,-2 C1.1239999532699585,-2 2,-1.1239999532699585 2,0 C2,1.1239999532699585 1.1239999532699585,2 0,2 C-1.1239999532699585,2 -2,1.1239999532699585 -2,0 C-2,-1.1239999532699585 -1.1239999532699585,-2 0,-2z"></path>
            </g>
        </g>
        <g transform="matrix(1,0,0,1,88,196)" opacity="1">
            <g opacity="1" transform="matrix(1,0,0,1,0,0)">
                <path fill="rgb(134,59,50)" fill-opacity="1"
                    d=" M0,-2 C1.1239999532699585,-2 2,-1.1239999532699585 2,0 C2,1.1239999532699585 1.1239999532699585,2 0,2 C-1.1239999532699585,2 -2,1.1239999532699585 -2,0 C-2,-1.1239999532699585 -1.1239999532699585,-2 0,-2z"></path>
            </g>
        </g>
        <g transform="matrix(1,0,0,1,88,103)" opacity="1">
            <g opacity="1" transform="matrix(1,0,0,1,0,0)">
                <path fill="rgb(134,59,50)" fill-opacity="1"
                    d=" M0,-2 C1.1239999532699585,-2 2,-1.1239999532699585 2,0 C2,1.1239999532699585 1.1239999532699585,2 0,2 C-1.1239999532699585,2 -2,1.1239999532699585 -2,0 C-2,-1.1239999532699585 -1.1239999532699585,-2 0,-2z"></path>
            </g>
        </g>
        <g transform="matrix(1,0,0,1,88,253)" opacity="1">
            <g opacity="1" transform="matrix(1,0,0,1,0,0)">
                <path fill="rgb(134,59,50)" fill-opacity="1"
                    d=" M0,-2 C1.1239999532699585,-2 2,-1.1239999532699585 2,0 C2,1.1239999532699585 1.1239999532699585,2 0,2 C-1.1239999532699585,2 -2,1.1239999532699585 -2,0 C-2,-1.1239999532699585 -1.1239999532699585,-2 0,-2z"></path>
            </g>
        </g>
        <g transform="matrix(1,0,0,1,162,46)" opacity="1">
            <g opacity="1" transform="matrix(1,0,0,1,0,0)">
                <path fill="rgb(134,59,50)" fill-opacity="1"
                    d=" M0,-2 C1.1239999532699585,-2 2,-1.1239999532699585 2,0 C2,1.1239999532699585 1.1239999532699585,2 0,2 C-1.1239999532699585,2 -2,1.1239999532699585 -2,0 C-2,-1.1239999532699585 -1.1239999532699585,-2 0,-2z"></path>
            </g>
        </g>
        <g transform="matrix(1,0,0,1,162,196)" opacity="1">
            <g opacity="1" transform="matrix(1,0,0,1,0,0)">
                <path fill="rgb(134,59,50)" fill-opacity="1"
                    d=" M0,-2 C1.1239999532699585,-2 2,-1.1239999532699585 2,0 C2,1.1239999532699585 1.1239999532699585,2 0,2 C-1.1239999532699585,2 -2,1.1239999532699585 -2,0 C-2,-1.1239999532699585 -1.1239999532699585,-2 0,-2z"></path>
            </g>
        </g>
        <g transform="matrix(1,0,0,1,200,151)" opacity="1">
            <g opacity="1" transform="matrix(1,0,0,1,0,0)">
                <path fill="rgb(134,59,50)" fill-opacity="1"
                    d=" M0,-2 C1.1239999532699585,-2 2,-1.1239999532699585 2,0 C2,1.1239999532699585 1.1239999532699585,2 0,2 C-1.1239999532699585,2 -2,1.1239999532699585 -2,0 C-2,-1.1239999532699585 -1.1239999532699585,-2 0,-2z"></path>
            </g>
        </g>
        <g transform="matrix(1,0,0,1,200,151)" opacity="1">
            <g opacity="1" transform="matrix(1,0,0,1,0,0)">
                <path fill="rgb(233,106,53)" fill-opacity="1"
                    d=" M0,-2 C1.1239999532699585,-2 2,-1.1239999532699585 2,0 C2,1.1239999532699585 1.1239999532699585,2 0,2 C-1.1239999532699585,2 -2,1.1239999532699585 -2,0 C-2,-1.1239999532699585 -1.1239999532699585,-2 0,-2z"></path>
            </g>
        </g>
        <g transform="matrix(1,0,0,1,162,103)" opacity="1">
            <g opacity="1" transform="matrix(1,0,0,1,0,0)">
                <path fill="rgb(233,106,53)" fill-opacity="1"
                    d=" M0,-2 C1.1239999532699585,-2 2,-1.1239999532699585 2,0 C2,1.1239999532699585 1.1239999532699585,2 0,2 C-1.1239999532699585,2 -2,1.1239999532699585 -2,0 C-2,-1.1239999532699585 -1.1239999532699585,-2 0,-2z"></path>
            </g>
        </g>
        <g transform="matrix(1,0,0,1,162,253)" opacity="1">
            <g opacity="1" transform="matrix(1,0,0,1,0,0)">
                <path fill="rgb(134,59,50)" fill-opacity="1"
                    d=" M0,-2 C1.1239999532699585,-2 2,-1.1239999532699585 2,0 C2,1.1239999532699585 1.1239999532699585,2 0,2 C-1.1239999532699585,2 -2,1.1239999532699585 -2,0 C-2,-1.1239999532699585 -1.1239999532699585,-2 0,-2z"></path>
            </g>
        </g>
        <g transform="matrix(1,0,0,1,238,46)" opacity="1">
            <g opacity="1" transform="matrix(1,0,0,1,0,0)">
                <path fill="rgb(134,59,50)" fill-opacity="1"
                    d=" M0,-2 C1.1239999532699585,-2 2,-1.1239999532699585 2,0 C2,1.1239999532699585 1.1239999532699585,2 0,2 C-1.1239999532699585,2 -2,1.1239999532699585 -2,0 C-2,-1.1239999532699585 -1.1239999532699585,-2 0,-2z"></path>
            </g>
        </g>
        <g transform="matrix(1,0,0,1,238,196)" opacity="1">
            <g opacity="1" transform="matrix(1,0,0,1,0,0)">
                <path fill="rgb(134,59,50)" fill-opacity="1"
                    d=" M0,-2 C1.1239999532699585,-2 2,-1.1239999532699585 2,0 C2,1.1239999532699585 1.1239999532699585,2 0,2 C-1.1239999532699585,2 -2,1.1239999532699585 -2,0 C-2,-1.1239999532699585 -1.1239999532699585,-2 0,-2z"></path>
            </g>
        </g>
        <g transform="matrix(1,0,0,1,238,103)" opacity="1">
            <g opacity="1" transform="matrix(1,0,0,1,0,0)">
                <path fill="rgb(134,59,50)" fill-opacity="1"
                    d=" M0,-2 C1.1239999532699585,-2 2,-1.1239999532699585 2,0 C2,1.1239999532699585 1.1239999532699585,2 0,2 C-1.1239999532699585,2 -2,1.1239999532699585 -2,0 C-2,-1.1239999532699585 -1.1239999532699585,-2 0,-2z"></path>
            </g>
        </g>
        <g transform="matrix(1,0,0,1,238,253)" opacity="1">
            <g opacity="1" transform="matrix(1,0,0,1,0,0)">
                <path fill="rgb(134,59,50)" fill-opacity="1"
                    d=" M0,-2 C1.1239999532699585,-2 2,-1.1239999532699585 2,0 C2,1.1239999532699585 1.1239999532699585,2 0,2 C-1.1239999532699585,2 -2,1.1239999532699585 -2,0 C-2,-1.1239999532699585 -1.1239999532699585,-2 0,-2z"></path>
            </g>
        </g>
        <g transform="matrix(1,0,0,1,313,46)" opacity="1">
            <g opacity="1" transform="matrix(1,0,0,1,0,0)">
                <path fill="rgb(134,59,50)" fill-opacity="1"
                    d=" M0,-2 C1.1239999532699585,-2 2,-1.1239999532699585 2,0 C2,1.1239999532699585 1.1239999532699585,2 0,2 C-1.1239999532699585,2 -2,1.1239999532699585 -2,0 C-2,-1.1239999532699585 -1.1239999532699585,-2 0,-2z"></path>
            </g>
        </g>
        <g transform="matrix(1,0,0,1,313,196)" opacity="1">
            <g opacity="1" transform="matrix(1,0,0,1,0,0)">
                <path fill="rgb(134,59,50)" fill-opacity="1"
                    d=" M0,-2 C1.1239999532699585,-2 2,-1.1239999532699585 2,0 C2,1.1239999532699585 1.1239999532699585,2 0,2 C-1.1239999532699585,2 -2,1.1239999532699585 -2,0 C-2,-1.1239999532699585 -1.1239999532699585,-2 0,-2z"></path>
            </g>
        </g>
        <g transform="matrix(1,0,0,1,313,103)" opacity="1">
            <g opacity="1" transform="matrix(1,0,0,1,0,0)">
                <path fill="rgb(134,59,50)" fill-opacity="1"
                    d=" M0,-2 C1.1239999532699585,-2 2,-1.1239999532699585 2,0 C2,1.1239999532699585 1.1239999532699585,2 0,2 C-1.1239999532699585,2 -2,1.1239999532699585 -2,0 C-2,-1.1239999532699585 -1.1239999532699585,-2 0,-2z"></path>
            </g>
        </g>
        <g transform="matrix(1,0,0,1,313,253)" opacity="1">
            <g opacity="1" transform="matrix(1,0,0,1,0,0)">
                <path fill="rgb(134,59,50)" fill-opacity="1"
                    d=" M0,-2 C1.1239999532699585,-2 2,-1.1239999532699585 2,0 C2,1.1239999532699585 1.1239999532699585,2 0,2 C-1.1239999532699585,2 -2,1.1239999532699585 -2,0 C-2,-1.1239999532699585 -1.1239999532699585,-2 0,-2z"></path>
            </g>
        </g>
    </g>
</svg>