<svg width="82" height="30" viewBox="0 0 82 30" fill="none" xmlns="http://www.w3.org/2000/svg">
<g clip-path="url(#clip0_1885_5090)">
<path d="M0.00734433 10.9474C0.19821 6.87339 3.30307 3.17226 7.80982 2.25925C11.4758 1.51657 14.7238 2.3682 17.4091 4.87091C18.1166 5.53073 18.0853 5.88366 17.2478 6.37315C16.2046 6.98234 16.2343 7.22171 15.0611 6.2504C12.904 4.46735 10.3536 3.98092 7.63541 4.89086C4.8662 5.81768 3.2422 7.73116 2.73541 10.4364C2.66466 10.8154 2.69592 11.2113 2.68605 11.5995C2.67782 11.9325 2.54619 12.086 2.15294 12.0016C1.69881 11.9049 1.23646 11.8021 0.774099 11.7852C-0.165422 11.7515 0.0254437 11.6379 0.00569894 10.9474H0.00734433Z" fill="#EDD0C6"/>
<path d="M14.9567 16.6481C14.9929 17.1867 14.7149 17.3478 14.4088 17.4997C12.255 18.5708 10.4467 20.0193 8.9823 21.8361C7.77951 23.3291 6.89923 24.9756 6.3727 26.7756C6.246 27.2083 6.05678 27.2543 5.67012 27.064C5.16827 26.817 4.68288 26.5469 4.21229 26.2508C3.93587 26.0758 3.85689 25.881 3.96384 25.5802C5.60265 20.9707 8.72233 17.5212 13.3229 15.2333C13.9136 14.9387 14.2871 15.0814 14.5372 15.6752C14.6935 16.0481 14.9255 16.398 14.9567 16.6481V16.6481Z" fill="#EDD0C6"/>
<path d="M36.5345 22.3317C35.0997 23.1756 33.6419 23.082 32.7731 22.0923C31.9208 21.1195 31.9537 19.4423 32.8422 18.5615C33.8081 17.6055 35.233 17.5334 36.5477 18.4127C36.4045 17.7406 36.8915 17.8695 37.2766 17.8695C38.0203 17.8695 38.3921 18.2163 38.3921 18.9098C38.3921 19.9978 38.3954 21.0857 38.3921 22.1752C38.3856 23.8385 37.4428 24.859 35.6657 25.0784C34.5781 25.2134 33.5399 25.0201 32.5658 24.5383C32.3157 24.414 32.217 24.2943 32.421 24.0472C32.6234 23.8032 32.7221 23.4334 32.9771 23.2923C33.2404 23.1465 33.5185 23.4948 33.8163 23.5746C34.3 23.7066 34.7805 23.8355 35.2906 23.7634C36.2005 23.636 36.5608 23.2186 36.5378 22.3317H36.5345ZM36.6168 20.3768C36.6168 19.6418 36.0787 19.1247 35.3169 19.1323C34.5633 19.1385 34.0121 19.6755 34.0236 20.3937C34.0351 21.0826 34.5929 21.6212 35.3087 21.6335C36.0442 21.6458 36.6151 21.098 36.6168 20.3783V20.3768Z" fill="#EDD0C6"/>
<path d="M28.2293 21.6367C27.8607 21.669 27.3111 21.471 26.9919 21.7119C26.7023 21.9298 26.6448 22.4239 26.5131 22.8045C26.4424 23.0086 26.3535 23.1175 26.0985 23.1052C25.5818 23.0822 25.0635 23.0883 24.5469 23.0822C24.5699 22.5943 24.8398 22.1784 25.0142 21.7365C25.7595 19.8614 26.5329 17.997 27.2782 16.1234C27.3819 15.861 27.5119 15.7613 27.8113 15.7797C28.3083 15.8119 28.9022 15.6554 29.2823 15.8595C29.6674 16.0666 29.692 16.6697 29.8697 17.1009C30.625 18.9392 31.3588 20.7836 32.1173 22.6203C32.2638 22.9763 32.2786 23.1773 31.7767 23.1006C31.7438 23.096 31.7093 23.1006 31.6764 23.1006C31.2272 23.093 30.7023 23.2157 30.3469 23.0408C29.9816 22.8628 29.9816 22.315 29.8335 21.9283C29.7414 21.6905 29.6163 21.6199 29.363 21.6321C29.0125 21.649 28.662 21.6367 28.2326 21.6367H28.2293ZM28.3329 17.7453C28.0022 18.6277 27.7044 19.424 27.3901 20.2649C27.9545 20.2649 28.4695 20.2573 28.9829 20.268C29.2527 20.2741 29.2395 20.1514 29.1754 19.9795C28.9072 19.2675 28.639 18.5571 28.3329 17.7469V17.7453Z" fill="#EDD0C6"/>
<path d="M13.1848 12.0217C13.1683 11.6027 13.2127 11.1792 13.1041 10.768C12.6796 9.1568 10.9273 8.19316 9.23253 8.71181C8.58095 8.91129 8.14657 8.81462 7.74344 8.34354C7.60852 8.18702 7.43411 8.05966 7.28602 7.91082C6.80063 7.42439 6.88125 6.98553 7.51309 6.67097C10.5554 5.15338 14.4534 6.63568 15.5624 9.72149C15.8602 10.5501 15.875 11.3987 15.8618 12.2549C15.8585 12.4605 15.7467 12.5495 15.5476 12.6155C14.9207 12.8272 14.2954 13.0497 13.6784 13.2845C13.351 13.4088 13.1946 13.3152 13.1864 13.0006C13.1765 12.6738 13.1848 12.347 13.1848 12.0217V12.0217Z" fill="#EDD0C6"/>
<path d="M30.071 8.11473C29.6465 7.76487 29.2187 7.5347 28.7218 7.42269C28.424 7.35517 28.1295 7.3521 27.8333 7.44417C27.5602 7.5301 27.3545 7.67587 27.3232 7.95822C27.292 8.23902 27.4483 8.45385 27.705 8.56126C28.22 8.77609 28.7514 8.96022 29.278 9.1505C30.4824 9.58628 31.05 10.3029 30.9678 11.2911C30.8789 12.3575 30.0628 13.1877 28.86 13.4225C27.5634 13.6756 26.4232 13.3611 25.3899 12.6169C25.1595 12.4511 25.1431 12.3161 25.3241 12.1289C25.3455 12.1059 25.3636 12.0783 25.3817 12.0537C25.5906 11.7744 25.7403 11.3632 26.0266 11.2512C26.2981 11.1453 26.5598 11.5734 26.8674 11.7115C27.3084 11.9079 27.7461 12.089 28.2512 12.046C28.6626 12.0107 29.0065 11.8711 29.1003 11.4537C29.1924 11.0379 28.9044 10.8108 28.5507 10.6696C28.0159 10.4563 27.4581 10.2952 26.9234 10.0788C25.8358 9.63999 25.4113 8.99858 25.4919 7.97509C25.5594 7.11733 26.2257 6.41454 27.2311 6.14755C28.4306 5.82838 29.5346 6.0386 30.5679 6.66619C30.8115 6.81504 30.8773 6.95007 30.6979 7.18638C30.4774 7.47639 30.2899 7.78789 30.0694 8.11627L30.071 8.11473Z" fill="#EDD0C6"/>
<path d="M20.2532 18.4524C20.2532 19.3926 19.7739 19.9869 18.8152 20.2355C16.8654 20.7434 15.1739 21.6641 13.7309 22.9853C13.2208 23.4517 12.9641 23.4656 12.3948 23.0574C12.171 22.8963 11.9423 22.7397 11.7218 22.574C11.243 22.2165 11.2068 21.8344 11.6297 21.4324C13.6782 19.4851 16.1364 18.2223 18.9978 17.6423C19.2084 17.5993 19.4223 17.5655 19.6362 17.5348C20.245 17.4474 20.2499 17.452 20.2516 18.0335C20.2516 18.1732 20.2516 18.3128 20.2516 18.4524H20.2532Z" fill="#EDD0C6"/>
<path d="M52.7034 10.7771C52.705 12.4113 51.4743 13.487 49.6001 13.4885C47.731 13.4901 46.4821 12.4083 46.4805 10.7863C46.4788 9.169 47.7326 8.07339 49.5903 8.07032C51.4529 8.06725 52.7017 9.15365 52.7034 10.7771ZM48.3562 10.7357C48.3496 11.5474 48.8433 12.0845 49.5919 12.0814C50.3439 12.0783 50.8638 11.5321 50.8605 10.7464C50.8572 9.98226 50.3521 9.43906 49.6298 9.42679C48.8647 9.41298 48.3612 9.93163 48.3546 10.7357H48.3562Z" fill="#EDD0C6"/>
<path d="M34.5779 8.06885C36.8453 8.06578 38.2439 9.80433 37.5314 11.7408C37.0937 12.9316 35.8004 13.6129 34.234 13.4824C32.5146 13.3382 31.3809 12.1966 31.4632 10.6913C31.552 9.0862 32.7565 8.07192 34.5779 8.07039V8.06885ZM35.8268 10.7618C35.8284 9.95471 35.3348 9.42379 34.5796 9.42685C33.8293 9.42839 33.3126 9.97926 33.3208 10.7695C33.3291 11.5383 33.8293 12.0677 34.5598 12.0815C35.3167 12.0953 35.8235 11.5674 35.8268 10.7618V10.7618Z" fill="#EDD0C6"/>
<path d="M55.9272 22.5754C55.4797 22.936 55.0881 23.1217 54.634 23.1954C53.3769 23.401 52.3979 22.778 52.3172 21.5995C52.2383 20.4379 52.2926 19.2702 52.281 18.104C52.2794 17.9153 52.36 17.8508 52.5476 17.8677C52.5641 17.8677 52.5805 17.8677 52.597 17.8677C53.605 17.8135 54.1091 18.2528 54.1091 19.1858C54.1091 19.729 54.1009 20.2737 54.1107 20.8169C54.1239 21.4875 54.374 21.7806 54.912 21.7852C55.4632 21.7913 55.8121 21.4614 55.8335 20.8338C55.8614 19.9791 55.8598 19.1244 55.8335 18.2697C55.8236 17.9337 55.9453 17.8293 56.2892 17.8631C56.7499 17.9076 57.3686 17.679 57.6319 17.9582C57.8589 18.1976 57.6993 18.7592 57.701 19.1766C57.7043 20.3581 57.6895 21.5397 57.7109 22.7197C57.7158 23.0342 57.6138 23.1278 57.2913 23.1033C56.9754 23.0803 56.6545 23.0772 56.3402 23.1033C55.9848 23.134 55.8516 23.002 55.9256 22.5724L55.9272 22.5754Z" fill="#EDD0C6"/>
<path d="M69.5518 22.5756C68.9018 23.1035 68.2354 23.3183 67.4605 23.1817C66.5357 23.0191 65.9993 22.5603 65.9533 21.6933C65.8875 20.501 65.9253 19.3026 65.9121 18.1072C65.9105 17.9231 65.9911 17.8633 66.1803 17.8663C66.6147 17.874 67.0491 17.8801 67.4835 17.8648C67.7846 17.8541 67.7402 18.0351 67.7402 18.2039C67.7402 19.12 67.7287 20.0376 67.7468 20.9537C67.7566 21.4984 68.01 21.7608 68.479 21.7884C68.994 21.8191 69.3461 21.546 69.4382 21.0319C69.4629 20.8954 69.4596 20.7527 69.4596 20.6146C69.4613 19.8381 69.4761 19.0602 69.453 18.2852C69.4432 17.9661 69.532 17.8326 69.8923 17.8679C70.3547 17.9124 70.9569 17.6899 71.2465 17.9538C71.5361 18.2177 71.3288 18.7778 71.3337 19.2059C71.3452 20.3706 71.3238 21.5352 71.3469 22.6999C71.3535 23.0344 71.2399 23.1388 70.8944 23.1081C70.6295 23.0835 70.3596 23.0866 70.0931 23.1081C69.7229 23.1357 69.4251 23.1127 69.5534 22.5802L69.5518 22.5756Z" fill="#EDD0C6"/>
<path d="M79.9781 20.9061C79.4433 20.9061 78.9086 20.9246 78.3755 20.9C77.9937 20.8831 78.002 21.035 78.1171 21.2821C78.3228 21.7286 78.8345 21.9849 79.4828 21.9634C79.9402 21.9481 80.3829 21.856 80.7728 21.635C81.0196 21.4954 81.148 21.5015 81.3322 21.7302C81.895 22.4299 81.9048 22.5219 81.0361 22.8534C79.6885 23.3674 78.3278 23.4764 77.1085 22.5695C76.169 21.8698 75.8975 20.4704 76.3961 19.364C76.8551 18.3436 78.0201 17.7175 79.3166 17.7927C81.1085 17.8971 82.0908 18.9436 81.9953 20.6253C81.9822 20.8478 81.9229 20.9169 81.6827 20.9108C81.1151 20.8954 80.5474 20.9061 79.9781 20.9061V20.9061ZM79.1323 19.9241C79.4318 19.9241 79.7329 19.9149 80.0324 19.9272C80.2907 19.9364 80.2989 19.8305 80.2348 19.6417C80.0933 19.2244 79.6671 18.919 79.1883 18.9083C78.698 18.8975 78.257 19.1722 78.099 19.5834C78.0184 19.7921 78.0118 19.9456 78.3343 19.9272C78.5992 19.9118 78.8674 19.9241 79.134 19.9241H79.1323Z" fill="#EDD0C6"/>
<path d="M49.8825 17.7975C50.1902 17.799 50.7579 17.8972 51.291 18.1519C51.5148 18.2594 51.6546 18.3698 51.5082 18.6153C51.4851 18.6552 51.4835 18.7059 51.4703 18.7504C51.3815 19.0158 51.3749 19.3764 51.1808 19.5222C50.9882 19.6665 50.72 19.3335 50.4535 19.2736C49.8447 19.1371 49.2441 19.0803 48.7653 19.5391C48.3309 19.9565 48.2635 20.4736 48.4757 21.0122C48.7653 21.7441 49.6769 22.005 50.5966 21.629C51.0113 21.4592 51.2888 21.582 51.4292 21.9973C51.6596 22.6786 51.653 22.7339 50.929 22.9763C49.7098 23.386 48.5185 23.3584 47.4803 22.5513C46.5292 21.8116 46.2561 20.5181 46.7481 19.3964C47.194 18.3806 48.3457 17.7284 49.8809 17.7975H49.8825Z" fill="#EDD0C6"/>
<path d="M62.0997 20.6101C62.0997 20.3462 62.0866 20.0807 62.103 19.8168C62.1277 19.4301 62.1293 19.0833 61.5304 19.2061C61.4317 19.226 61.3132 19.2076 61.3099 19.0818C61.3017 18.7243 61.2721 18.3637 61.3182 18.0107C61.3461 17.799 61.5995 17.9002 61.741 17.9079C62.0306 17.9217 62.1096 17.8205 62.1096 17.5596C62.1096 17.2082 61.9352 16.7494 62.1886 16.533C62.437 16.3213 62.9274 16.5085 63.3042 16.4609C63.8274 16.3949 64.0413 16.5714 63.9442 17.0594C63.9376 17.09 63.9442 17.1207 63.9442 17.153C63.9442 17.8941 63.9442 17.9156 64.7192 17.891C65.0927 17.8803 65.2029 17.9724 65.1947 18.3268C65.1717 19.1785 65.1947 19.1907 64.3029 19.2015C64.0166 19.2045 63.9294 19.2828 63.9393 19.5452C63.959 20.073 63.9393 20.6024 63.9475 21.1303C63.9574 21.6812 64.1318 21.8469 64.7143 21.7625C65.0598 21.7134 65.1026 21.8346 65.1207 22.0955C65.1947 23.1266 65.1602 23.1696 64.0429 23.2187C62.804 23.2739 62.1721 22.743 62.1162 21.5845C62.0997 21.2592 62.1145 20.9323 62.1145 20.6055C62.1112 20.6055 62.1079 20.6055 62.103 20.6055L62.0997 20.6101Z" fill="#EDD0C6"/>
<path d="M19.2348 21.8145C19.4685 21.8175 19.5836 21.9157 19.4948 22.1352C19.401 22.3669 19.2973 22.5955 19.1739 22.8149C17.8806 25.1396 15.9045 26.7293 13.234 27.5626C13.0498 27.6209 12.8342 27.736 12.6779 27.561C12.5446 27.4107 12.6779 27.2357 12.7519 27.0838C14.014 24.5013 16.0987 22.7704 18.988 21.8712C19.067 21.8467 19.1492 21.8344 19.2348 21.816V21.8145Z" fill="#EDD0C6"/>
<path d="M60.5645 19.4823C60.5645 20.5395 60.5513 21.5968 60.5727 22.654C60.5793 22.9824 60.5201 23.1512 60.1153 23.1067C59.671 23.0576 59.0886 23.2755 58.8089 23.0207C58.5291 22.766 58.7249 22.2259 58.7233 21.8116C58.7134 19.961 58.7266 18.112 58.7118 16.2614C58.7085 15.9346 58.7628 15.7658 59.1659 15.8087C59.6102 15.8578 60.1894 15.64 60.4707 15.8931C60.7554 16.1494 60.5513 16.688 60.5596 17.1023C60.5744 17.8956 60.5645 18.6874 60.5645 19.4807V19.4823Z" fill="#EDD0C6"/>
<path d="M41.1284 9.75211C41.1284 8.64883 41.1383 7.54401 41.1218 6.44073C41.1169 6.15839 41.1959 6.04791 41.5118 6.07553C41.9741 6.11543 42.5665 5.90367 42.8659 6.15686C43.1457 6.39317 42.9466 6.94864 42.9499 7.36448C42.9581 9.23039 42.9449 11.0948 42.963 12.9607C42.9663 13.286 42.8808 13.398 42.5254 13.3688C42.0811 13.332 41.492 13.4947 41.2222 13.2845C40.9375 13.0635 41.1416 12.4988 41.135 12.0845C41.1202 11.3081 41.1317 10.5301 41.1317 9.75211H41.1284Z" fill="#EDD0C6"/>
<path d="M38.319 9.70468C38.319 8.61675 38.3289 7.52881 38.3124 6.44087C38.3075 6.157 38.3898 6.04958 38.704 6.07567C39.1647 6.11557 39.7587 5.90381 40.0582 6.15853C40.3379 6.39637 40.1388 6.95185 40.1405 7.36616C40.1487 9.23207 40.1355 11.0964 40.1536 12.9624C40.1569 13.2892 40.0681 13.3981 39.7143 13.369C39.2701 13.3322 38.681 13.4948 38.4112 13.2846C38.1265 13.0636 38.3322 12.4989 38.324 12.0846C38.3108 11.2913 38.3207 10.4995 38.3207 9.70622L38.319 9.70468Z" fill="#EDD0C6"/>
<path d="M41.2661 18.4251C41.6725 17.9663 42.1563 17.7239 42.7963 17.8021C43.0596 17.8343 43.2011 17.8942 43.1435 18.1689C43.1122 18.3192 43.1205 18.4773 43.1073 18.6323C43.0859 18.8793 43.1484 19.1785 43.0185 19.3596C42.8671 19.5683 42.5824 19.3074 42.3405 19.3166C41.7647 19.3381 41.3352 19.6788 41.2497 20.2803C41.1361 21.0828 41.2019 21.893 41.2085 22.6986C41.2118 23.0346 41.0933 23.1359 40.7511 23.1052C40.3052 23.0653 39.7277 23.274 39.4446 23.0224C39.1616 22.7692 39.3624 22.2291 39.3574 21.8163C39.3459 20.6209 39.3624 19.4256 39.3459 18.2287C39.3426 17.9402 39.4348 17.8389 39.7408 17.8635C40.0057 17.885 40.2739 17.8681 40.5421 17.8681C40.9458 17.8681 41.186 18.0533 41.2628 18.4236L41.2661 18.4251Z" fill="#EDD0C6"/>
<path d="M74.0817 18.4942C74.5391 17.9602 75.0426 17.7315 75.7057 17.8006C75.9804 17.8297 76.0874 17.9095 76.0545 18.1719C76.0051 18.5862 75.9804 19.0036 75.9442 19.4379C75.8143 19.4148 75.7024 19.398 75.5905 19.3749C74.8155 19.2154 74.233 19.5468 74.1639 20.2787C74.0915 21.0644 74.0981 21.8608 74.1228 22.651C74.1343 23.0331 73.9977 23.1436 73.6144 23.1037C73.1701 23.0577 72.5761 23.2786 72.3211 23.0101C72.1022 22.7799 72.2553 22.2398 72.2536 21.8378C72.2503 20.6424 72.2635 19.4455 72.2454 18.2502C72.2405 17.9448 72.3277 17.8313 72.66 17.862C72.9085 17.8865 73.1619 17.8819 73.4103 17.862C73.871 17.8282 74.284 17.8236 74.0817 18.4911V18.4942Z" fill="#EDD0C6"/>
<path d="M0.364303 17.4859C2.08045 17.7299 3.70117 18.2286 5.21822 19.0142C5.48478 19.1523 5.5111 19.315 5.34163 19.5452C4.9928 20.0178 4.65221 20.4965 4.31655 20.9799C4.1553 21.2131 3.97595 21.2269 3.72585 21.1011C2.72216 20.5978 1.65923 20.2418 0.53707 20.0469C0.240898 19.9963 0.0418053 19.8705 0.0352237 19.5651C0.0253514 18.959 0.0121882 18.3544 0.0039612 17.7483C0.000670407 17.5181 0.145465 17.4552 0.362658 17.489L0.364303 17.4859Z" fill="#EDD0C6"/>
<path d="M9.64557 27.9952C9.23587 28.0228 8.7768 27.9277 8.31444 27.8709C8.0084 27.8341 7.88499 27.7021 7.97714 27.3922C8.36216 26.1001 8.91666 24.8787 9.68012 23.7432C9.99275 23.2767 10.3926 23.2 10.8566 23.5376C12.3095 24.5902 12.3325 24.4168 11.467 25.8454C11.1906 26.3012 10.9997 26.8029 10.8023 27.2955C10.5209 27.9952 10.5341 27.9998 9.64557 27.9967V27.9952Z" fill="#EDD0C6"/>
<path d="M20.2706 11.2116C20.3611 11.5768 20.162 11.7532 19.6519 11.7762C19.1238 11.7993 18.5989 11.9174 18.0756 12.0095C17.735 12.0693 17.5639 11.9849 17.5771 11.6381C17.6149 10.6315 17.406 9.66789 17.0094 8.73187C16.8531 8.3636 16.9288 8.03215 17.327 7.80505C17.6116 7.64393 17.8798 7.45826 18.1645 7.29561C18.7322 6.9703 19.1353 7.08232 19.4068 7.64393C19.9399 8.74721 20.1883 9.91034 20.2706 11.2085V11.2116Z" fill="#EDD0C6"/>
<path d="M8.81291 12.6568C8.81291 12.2057 8.79317 11.7546 8.81785 11.305C8.85405 10.6513 9.45956 10.1511 10.1506 10.1725C10.8697 10.1956 11.4291 10.6927 11.4406 11.3541C11.4554 12.2395 11.4406 13.1249 11.4472 14.0102C11.4488 14.2542 11.3616 14.4307 11.1263 14.5412C11.0967 14.555 11.0704 14.5734 11.0424 14.5918C10.0716 15.1856 9.8561 15.1688 8.98733 14.4675C8.82608 14.3371 8.80469 14.1836 8.80469 14.0087C8.80469 13.5576 8.80469 13.108 8.80469 12.6568H8.81127H8.81291Z" fill="#EDD0C6"/>
<path d="M20.254 14.6181C20.254 15.7643 20.2523 15.7536 19.0627 15.9776C18.4769 16.0881 17.8961 16.2292 17.3202 16.3796C16.5979 16.5668 16.3609 16.4763 16.0763 15.8472C15.9545 15.5771 15.8213 15.3086 15.7192 15.0308C15.5547 14.5828 15.7127 14.2621 16.1915 14.1117C17.3778 13.7403 18.6003 13.5163 19.8393 13.3629C20.1536 13.3245 20.2622 13.4595 20.254 13.7327C20.2457 14.0273 20.2523 14.3219 20.2523 14.6165L20.254 14.6181Z" fill="#EDD0C6"/>
<path d="M4.40936 11.4124C4.35671 10.613 4.58707 9.79355 5.00664 9.01865C5.35382 8.37877 5.83757 8.31432 6.39865 8.8161C6.45953 8.8698 6.51218 8.93272 6.57635 8.98028C7.23451 9.45443 7.51916 9.98229 7.16047 10.7894C6.89227 11.3909 7.05681 12.0814 7.04694 12.7321C7.03706 13.4456 7.01567 13.4594 6.28676 13.1755C5.84086 13.0021 5.39496 12.8134 4.93095 12.6952C4.51467 12.5893 4.34684 12.396 4.40607 12.0016C4.43075 11.8344 4.41101 11.6595 4.41101 11.4124H4.40936Z" fill="#EDD0C6"/>
<path d="M43.8704 20.4994C43.8704 19.7383 43.8803 18.9757 43.8655 18.2146C43.8605 17.9584 43.9296 17.8479 44.2242 17.8632C44.624 17.8832 45.0255 17.8755 45.427 17.8648C45.6441 17.8586 45.7182 17.9369 45.7182 18.1379C45.7133 19.7076 45.7116 21.2774 45.7182 22.8472C45.7182 23.0635 45.608 23.1065 45.4089 23.1019C45.0074 23.0942 44.6059 23.0881 44.2061 23.1034C43.9445 23.1142 43.8605 23.0267 43.8655 22.7827C43.8803 22.0216 43.8704 21.259 43.8704 20.4979V20.4994Z" fill="#EDD0C6"/>
<path d="M43.903 10.7773C43.903 10.0316 43.9194 9.28583 43.8947 8.54161C43.8849 8.22398 44.0033 8.13805 44.3258 8.15799C44.7076 8.18101 45.0942 8.17181 45.4776 8.16106C45.6899 8.15493 45.7688 8.21937 45.7672 8.42499C45.7606 9.99322 45.7606 11.5614 45.7672 13.1312C45.7672 13.3184 45.6931 13.3844 45.5039 13.3629C45.4875 13.3614 45.471 13.3629 45.4546 13.3629C44.956 13.3522 44.3176 13.5102 43.9967 13.2816C43.6907 13.0637 43.9243 12.4361 43.9062 11.9896C43.8898 11.586 43.903 11.1824 43.903 10.7789V10.7773Z" fill="#EDD0C6"/>
<path d="M5.30879 14.5688C5.4322 14.6072 5.59345 14.644 5.74482 14.7054C6.58891 15.0384 7.3968 15.4358 8.17508 15.8839C8.60123 16.1294 8.61111 16.2353 8.26393 16.5468C7.84435 16.9243 7.41326 17.291 7.01013 17.6838C6.80446 17.8848 6.63992 17.9278 6.36678 17.7836C5.81722 17.4951 5.24956 17.2327 4.67696 16.9856C4.23929 16.7969 4.08133 16.5053 4.21296 16.0849C4.32485 15.7289 4.45648 15.379 4.58647 15.0292C4.69671 14.733 4.932 14.5873 5.30715 14.5688H5.30879Z" fill="#EDD0C6"/>
<path d="M0.00464946 14.5644C0.00464946 14.5031 0.00464946 14.4402 0.00464946 14.3788C-0.000286726 13.0868 -0.0940744 13.3307 1.15149 13.4627C1.66156 13.5164 2.1667 13.63 2.66855 13.7404C3.26254 13.8709 3.44847 14.1962 3.27076 14.7486C3.19014 15.0002 3.09635 15.2488 3.00585 15.4974C2.78208 16.1189 2.52704 16.2524 1.84585 16.1235C1.35717 16.0314 0.868483 15.9317 0.373218 15.8749C0.0655291 15.8396 -0.0150953 15.7107 -0.000286726 15.4483C0.0161672 15.1552 0.00300407 14.8591 0.00300407 14.5644H0.00464946Z" fill="#EDD0C6"/>
<path d="M1.10122 21.8206C1.7528 21.9986 2.41425 22.2426 3.0395 22.5725C3.22872 22.6722 3.26327 22.8226 3.17936 23.0098C2.99178 23.4226 2.80421 23.8354 2.63309 24.2543C2.51133 24.5504 2.31224 24.578 2.11808 24.3601C1.53232 23.6988 1.08148 22.9592 0.745818 22.1628C0.635576 21.9019 0.762271 21.7868 1.10122 21.8221V21.8206Z" fill="#EDD0C6"/>
<path d="M44.7873 17.3126C44.1702 17.3126 43.749 16.9474 43.7539 16.4165C43.7589 15.8825 44.1768 15.5311 44.8021 15.5357C45.4257 15.5403 45.8535 15.907 45.8469 16.4287C45.8403 16.9489 45.4043 17.3126 44.7873 17.3126V17.3126Z" fill="#EDD0C6"/>
<path d="M44.8249 7.57616C44.1882 7.57309 43.7669 7.22016 43.7735 6.69538C43.7784 6.18747 44.2441 5.79618 44.8364 5.80232C45.4584 5.80846 45.8632 6.16599 45.8632 6.70458C45.8632 7.25392 45.4749 7.57923 44.8249 7.57616Z" fill="#EDD0C6"/>
<path d="M18.9663 27.2358C18.6668 26.9918 18.8462 26.7401 18.6635 26.5882C18.4644 26.7279 18.522 27.0025 18.3147 27.1345C18.1123 27.0025 18.1501 26.7417 17.9823 26.579C17.7684 26.7202 17.9774 27.0041 17.7191 27.1805C17.6203 26.8046 17.7585 26.4823 17.7635 26.1601C17.7635 26.0926 17.7931 26.0297 17.8737 26.045C17.9313 26.0558 18.007 26.0911 18.0284 26.1356C18.1172 26.3166 18.188 26.5038 18.2867 26.7371C18.4743 26.5422 18.4957 26.3258 18.5928 26.1463C18.6174 26.1003 18.6849 26.0604 18.7425 26.0466C18.8165 26.0266 18.8626 26.0742 18.8692 26.1463C18.8988 26.4747 18.9268 26.8015 18.9646 27.2388L18.9663 27.2358Z" fill="#EDD0C6"/>
<path d="M20.059 26.2246C19.8039 26.2246 19.5308 26.0942 19.3432 26.3642C19.2313 26.5254 19.2461 26.6896 19.3695 26.8399C19.5637 27.0778 19.8089 26.955 20.054 26.9504C19.8697 27.1852 19.6279 27.2189 19.3498 27.0747C19.0553 26.9213 18.9598 26.5177 19.177 26.2645C19.4337 25.9653 19.7431 25.953 20.059 26.2261V26.2246Z" fill="#EDD0C6"/>
</g>
<defs>
<clipPath id="clip0_1885_5090">
<rect width="82" height="30" fill="white"/>
</clipPath>
</defs>
</svg>
