<svg width="172" height="30" viewBox="0 0 172 30" fill="none" xmlns="http://www.w3.org/2000/svg">
<path d="M10.8688 14.6754C10.8688 14.5693 10.8688 14.4633 10.8688 14.3572C10.8688 14.2512 10.8952 14.1451 10.9215 14.0656C10.9743 13.8005 11.0534 13.5619 11.1326 13.3233C11.1853 13.2172 11.2117 13.1377 11.2645 13.0316C11.2909 12.9786 11.3172 12.9256 11.3436 12.8991C11.3964 12.8196 11.4492 12.7135 11.5283 12.634C11.5547 12.581 11.5811 12.5544 11.6074 12.5014C11.8185 12.2098 12.0559 11.9447 12.2933 11.7061C12.3461 11.6531 12.3725 11.6265 12.4252 11.5735C12.7682 11.2819 13.1111 10.9903 13.5068 10.7517C13.5596 10.7252 13.6123 10.6721 13.6915 10.6456C13.8234 10.5661 13.9289 10.5131 14.0608 10.4335C14.5357 10.1684 15.0369 9.95632 15.5381 9.74423C16.0393 9.55865 16.5406 9.39959 17.0418 9.26703C17.8068 9.05494 18.5719 8.92238 19.3633 8.81633C19.8117 8.76331 20.2866 8.71029 20.7614 8.68377C21.1044 8.65726 21.4209 8.65726 21.7639 8.65726C24.2436 8.63075 26.6706 9.13447 28.9393 10.1419C29.124 10.2214 29.3087 10.0889 29.3087 9.9033C29.3087 9.47912 29.2823 9.02843 29.1768 8.60424C29.124 8.39215 28.9393 8.20657 28.7283 8.15355C26.8025 7.75587 24.824 7.51727 22.8719 7.46425C22.5025 7.46425 22.1596 7.43773 21.7903 7.43773H21.3418C20.524 7.43773 19.7062 7.49076 18.8884 7.54379C18.4663 7.5703 18.0442 7.62332 17.6485 7.67634C16.6725 7.78239 15.7228 7.94145 14.8522 8.12703C14.6148 8.18006 14.3774 8.23308 14.1663 8.2861C13.8234 8.36564 13.4804 8.44517 13.1639 8.55122C12.9528 8.60424 12.7418 8.68378 12.5307 8.7368C12.0031 8.89587 11.5019 9.08145 11.0271 9.26703C10.8424 9.34656 10.6577 9.4261 10.4731 9.50563C10.2093 9.63819 9.94547 9.74423 9.68167 9.87679C9.52338 9.95632 9.33872 10.0624 9.18044 10.1419C9.1013 10.1949 9.02216 10.2214 8.94301 10.2745C8.78473 10.354 8.65283 10.46 8.49455 10.5661C8.28351 10.6986 8.07246 10.8577 7.8878 11.0168C7.70314 11.1758 7.51847 11.3084 7.33381 11.4675C7.12277 11.6796 6.91173 11.8917 6.72706 12.1037C6.59516 12.2628 6.46326 12.4219 6.35774 12.6075C6.22584 12.8196 6.09393 13.0582 5.98841 13.2968C5.93565 13.4028 5.90927 13.5354 5.85651 13.6414C5.77737 13.933 5.72461 14.2512 5.72461 14.5693C5.72461 16.16 6.88535 17.6446 8.86387 18.8376C8.96939 18.9172 9.12768 18.8642 9.18044 18.7316C9.60252 17.5651 10.1038 16.4516 10.6841 15.3647C10.816 15.2056 10.8688 14.9405 10.8688 14.6754ZM23.7688 6.35077L23.8479 6.32426C23.9798 6.27124 24.0853 6.24473 24.1909 6.21822L24.2964 6.1917C24.3755 6.16519 24.4811 6.13867 24.5866 6.11216L24.6657 6.08566C24.7712 6.05915 24.9031 6.03263 25.0087 6.00612L25.0878 5.97961C25.1669 5.95309 25.2725 5.9531 25.3516 5.92659L25.4307 5.90008C25.5363 5.87356 25.6418 5.87356 25.7737 5.84705H25.8265C25.9056 5.84705 26.0111 5.82054 26.0903 5.82054H26.1694C26.2749 5.82054 26.3804 5.82054 26.486 5.82054H26.5387C26.6442 5.82054 26.7234 5.82054 26.8289 5.82054H26.8817C26.9872 5.82054 27.0927 5.84705 27.1719 5.84705H27.2246C27.3038 5.84705 27.4093 5.87356 27.4884 5.90008H27.5148C27.5939 5.92659 27.6995 5.92659 27.805 5.9531L27.8577 5.97961C27.9369 6.00612 28.0424 6.03263 28.1215 6.05915C28.2007 6.08566 28.2798 6.11217 28.359 6.16519L28.4117 6.1917C28.4909 6.21821 28.57 6.27124 28.6492 6.32426L28.7019 6.35077C28.7811 6.37728 28.8338 6.43031 28.913 6.48333L28.9393 6.50983C29.0185 6.56286 29.0976 6.61588 29.1504 6.6689L29.2031 6.72193C29.2823 6.77495 29.335 6.85448 29.4142 6.90751C29.6516 7.14611 29.8627 7.43774 30.0209 7.75587C30.1528 8.02099 30.2584 8.31262 30.3375 8.60424C30.4694 9.13447 30.5222 9.69121 30.4958 10.2479C30.4694 10.4865 30.443 10.7517 30.4166 10.9903C30.4166 11.0168 30.4166 11.0168 30.4166 11.0433C30.3903 11.2819 30.3375 11.5205 30.2584 11.7591L30.232 11.8121C29.7835 13.4558 29.0185 14.9935 28.016 16.3721C27.805 16.6637 27.5939 16.9288 27.3829 17.2205C27.2774 17.353 27.1455 17.4856 27.04 17.6446C26.697 18.0688 26.3277 18.4665 25.9056 18.8642C25.8265 18.9437 25.9056 19.0497 26.0111 19.0497C26.3277 18.9702 26.7234 18.8642 27.1455 18.7316C27.6467 18.599 28.0952 18.3074 28.4117 17.9097C28.4909 17.8037 28.5964 17.6977 28.6755 17.6181C29.1768 17.0084 29.678 16.3986 30.1265 15.7888C30.2847 15.5767 30.4166 15.3912 30.5749 15.1791C30.9442 14.6223 31.3136 14.0921 31.6301 13.5619C31.7884 13.2968 31.9203 13.0582 32.0522 12.8196C32.2369 12.5014 32.3952 12.2098 32.5271 11.8917C32.7381 11.494 32.8964 11.1228 33.0547 10.7517C33.1338 10.5661 33.213 10.3805 33.2921 10.1949C33.3185 10.1154 33.3712 10.0093 33.3976 9.92981L33.4504 9.79726C33.5031 9.6647 33.5559 9.50563 33.5823 9.37307C33.6087 9.26703 33.635 9.18749 33.6614 9.08145C33.7142 8.89587 33.7669 8.7368 33.7933 8.57773C33.8725 8.31262 33.9252 8.0475 33.9516 7.8089C33.978 7.64983 34.0044 7.46425 34.0307 7.30518C34.0571 7.14611 34.0571 6.98704 34.0835 6.82797C34.0835 6.66891 34.1099 6.50983 34.1099 6.37728C34.1099 6.21821 34.1099 6.08566 34.1099 5.92659C34.1099 5.84705 34.1099 5.79403 34.0835 5.71449C34.0835 5.58193 34.0571 5.42287 34.0307 5.29032C33.9252 4.52148 33.5823 3.83219 33.0547 3.27545C33.0019 3.22242 32.9755 3.19591 32.9228 3.14289L32.87 3.08986C32.8436 3.06335 32.8173 3.03684 32.7645 3.01033L32.7117 2.95731C32.6854 2.93079 32.659 2.90429 32.6062 2.87778L32.5271 2.82475C32.5007 2.79824 32.4743 2.77173 32.4479 2.77173L32.3688 2.7187C32.3424 2.69219 32.316 2.69219 32.2896 2.66568C32.2633 2.66568 32.2369 2.63917 32.2105 2.63917C32.1841 2.63917 32.1577 2.61266 32.105 2.58615L32.0258 2.55963L31.9203 2.50661L31.8412 2.4801L31.7357 2.45359L31.6565 2.42708L31.551 2.40057L31.4719 2.37406L31.3663 2.34755L31.2872 2.32103L31.1817 2.29452L31.0761 2.26801L30.9706 2.2415L30.8915 2.21499H30.7596L30.6541 2.18848H30.5485H30.443H30.3111H30.2056H30.0737C29.9682 2.18848 29.8626 2.18848 29.7835 2.18848H29.7307C29.6516 2.18848 29.5725 2.18848 29.4669 2.21499H29.3878C29.2823 2.21499 29.1768 2.2415 29.0712 2.2415H29.0185C28.9393 2.2415 28.8338 2.26801 28.7547 2.29452L28.6755 2.32103C28.57 2.34755 28.4645 2.34754 28.359 2.37406L28.3062 2.40057C28.2007 2.42708 28.1215 2.45359 28.016 2.45359L27.9369 2.4801C27.8314 2.50662 27.6995 2.53312 27.5939 2.55963H27.5676C27.462 2.58615 27.3565 2.61266 27.251 2.63917L27.1719 2.66568C27.0663 2.69219 26.9344 2.74522 26.8289 2.79824H26.8025C26.697 2.85126 26.5651 2.87777 26.4596 2.9308L26.3804 2.95731C26.2485 3.01033 26.143 3.03684 26.0111 3.08986C25.8792 3.14289 25.7737 3.19591 25.6418 3.24893L25.5363 3.27545C25.4307 3.32847 25.2988 3.38149 25.1933 3.43451L25.1669 3.46103C25.035 3.51405 24.9031 3.56707 24.7976 3.6466L24.6921 3.69963C24.5866 3.75265 24.4811 3.80567 24.3492 3.85869L24.2964 3.88521C24.1645 3.93823 24.0326 4.01777 23.9007 4.0973L23.7952 4.15032C23.6896 4.20334 23.5841 4.28288 23.4522 4.3359L23.3995 4.36242C23.2676 4.44195 23.1357 4.52148 23.0038 4.60102L22.9246 4.65404C22.8191 4.70706 22.7136 4.7866 22.5817 4.86613L22.5025 4.91915C22.3706 4.99868 22.2387 5.07822 22.1068 5.15776L22.0277 5.21078C21.9222 5.29031 21.8166 5.36985 21.6847 5.42287L21.6056 5.47589C21.4737 5.55543 21.3418 5.66147 21.2099 5.74101L21.1307 5.79403C21.0252 5.87357 20.9197 5.9531 20.7878 6.03263L20.7087 6.08566L20.313 6.37728C21.4209 6.37728 22.5289 6.35077 23.6369 6.32426L23.7688 6.35077ZM22.951 22.8674C22.0277 22.8674 20.8142 22.8939 20.2866 22.8939C20.1019 22.8939 19.9172 22.9204 19.759 22.9734L19.7062 22.9999C19.5743 23.0265 19.4688 23.0795 19.3369 23.106L19.2577 23.1325C19.1522 23.159 19.0731 23.1855 18.9676 23.212L18.8884 23.2385C18.7829 23.2651 18.651 23.2916 18.5455 23.3181L18.4663 23.3446C18.3608 23.3711 18.2817 23.3711 18.1761 23.3976L18.097 23.4241C17.9915 23.4506 17.8596 23.4506 17.7541 23.4771H17.7013C17.5958 23.4771 17.5166 23.5037 17.4111 23.5037H17.332C17.2265 23.5037 17.1209 23.5037 17.0154 23.5037H16.9626C16.8571 23.5037 16.778 23.5037 16.6725 23.5037H16.6197C16.5142 23.5037 16.435 23.4771 16.3295 23.4771H16.2768L16.013 23.4241H15.9866C15.9074 23.3976 15.8019 23.3711 15.7228 23.3711L15.67 23.3446C15.5909 23.3181 15.4853 23.2916 15.4062 23.2651C15.3271 23.2385 15.2479 23.212 15.1688 23.159L15.116 23.1325C15.0369 23.106 14.9577 23.053 14.8786 22.9999L14.8258 22.9734C14.7467 22.9204 14.6939 22.8939 14.6148 22.8409L14.5884 22.8144C14.5093 22.7613 14.4301 22.7083 14.3774 22.6553L14.3246 22.6288C14.2455 22.5758 14.1927 22.4962 14.1136 22.4432C13.8761 22.2046 13.6651 21.913 13.5068 21.5948C13.3749 21.3297 13.2694 21.0381 13.1903 20.7465C13.1639 20.6669 13.1375 20.5874 13.1375 20.5079C13.0847 20.2958 13.0584 20.0572 13.0584 19.8451C13.032 19.6065 13.032 19.3679 13.0584 19.1293C13.0584 18.8642 13.0847 18.6256 13.1375 18.3604C13.1375 18.3339 13.1375 18.3339 13.1375 18.3074C13.1639 18.0688 13.2166 17.8302 13.2958 17.5916L13.3222 17.5386C13.3749 17.3 13.4541 17.0349 13.5332 16.7963C13.6651 16.3721 13.8498 15.9479 14.0344 15.5502C14.1663 15.2586 14.2982 14.9935 14.4565 14.7019C14.6148 14.4102 14.7731 14.1186 14.9577 13.8535C15.1424 13.5619 15.3271 13.2968 15.5381 13.0051C15.7492 12.7135 15.9602 12.4484 16.1712 12.1568C16.6197 11.5735 17.1209 11.0433 17.6222 10.5131C17.6749 10.46 17.6222 10.3805 17.5694 10.407C17.3584 10.46 17.1737 10.5131 16.9626 10.5661C16.0393 10.8312 15.1952 11.3614 14.5884 12.1037C13.6123 13.2702 12.7154 14.5428 11.924 15.8419C11.7657 16.0805 11.6338 16.3456 11.5019 16.5842L11.4755 16.6107C11.37 16.8228 11.2645 17.0084 11.159 17.1939C11.0534 17.3795 10.9479 17.5916 10.8688 17.7772C10.7633 17.9628 10.6841 18.1749 10.605 18.3604C10.5258 18.546 10.4467 18.7316 10.3676 18.9437C10.2884 19.1293 10.2093 19.3148 10.1565 19.5004L10.1038 19.633C10.0246 19.8716 9.94547 20.1102 9.86633 20.3488C9.70805 20.8525 9.60252 21.3562 9.52338 21.8865C9.497 22.0455 9.47062 22.2046 9.47062 22.3637C9.44424 22.5227 9.44424 22.6818 9.44424 22.8409C9.44424 22.9204 9.44424 22.9999 9.44424 23.0795C9.44424 23.159 9.44424 23.2385 9.44424 23.2916C9.44424 23.4506 9.44424 23.5832 9.47062 23.7158C9.497 23.9278 9.52338 24.1399 9.54976 24.3255C9.6289 24.6967 9.76081 25.0678 9.94547 25.4125C10.0246 25.5715 10.1301 25.7306 10.262 25.8632C10.3412 25.9692 10.4203 26.0488 10.4995 26.1283C10.5522 26.1813 10.5786 26.2078 10.6314 26.2608C10.6577 26.2874 10.6577 26.2874 10.6841 26.3139C10.7105 26.3404 10.7369 26.3669 10.7633 26.3934L10.816 26.4464C10.8424 26.4729 10.8688 26.4994 10.8952 26.526C10.9215 26.5525 10.9479 26.5525 10.9479 26.579C10.9743 26.6055 11.0007 26.632 11.0271 26.632L11.0798 26.579C11.1062 26.6055 11.1326 26.6055 11.159 26.632L11.2381 26.6585C11.2645 26.685 11.2909 26.685 11.3436 26.7115L11.4228 26.7381L11.5283 26.7911L11.6074 26.8441L11.713 26.8706L11.7921 26.8971L11.8976 26.9236L11.9768 26.9501L12.1878 27.0032L12.2933 27.0297L12.3988 27.0562L12.5044 27.0827L12.6099 27.1092L12.7154 27.1357H12.8209H12.9528H13.0584H13.1903H13.2958H13.4541C13.5596 27.1357 13.6651 27.1357 13.7442 27.1357H13.797C13.8761 27.1357 13.9553 27.1357 14.0608 27.1092H14.1399C14.2455 27.1092 14.351 27.0827 14.4565 27.0827H14.5093C14.5884 27.0562 14.6939 27.0562 14.7731 27.0297L14.8522 27.0032C14.9577 26.9767 15.0633 26.9767 15.1688 26.9501H15.2215C15.3271 26.9236 15.4062 26.8971 15.5117 26.8971L15.5909 26.8706C15.6964 26.8441 15.8283 26.8176 15.9338 26.7911H15.9602C16.0657 26.7646 16.1712 26.7381 16.2768 26.7115L16.3559 26.685C16.4878 26.6585 16.5933 26.6055 16.7252 26.579H16.7516C16.8571 26.526 16.989 26.4994 17.0946 26.4464L17.2001 26.4199C17.3056 26.3669 17.4375 26.3404 17.5694 26.2874C17.7013 26.2343 17.8068 26.1813 17.9387 26.1283L18.0442 26.0753C18.1498 26.0222 18.2817 25.9692 18.3872 25.9162L18.4136 25.8897C18.5455 25.8367 18.651 25.7571 18.7829 25.7041L18.8884 25.6511C18.9939 25.5981 19.0995 25.545 19.2314 25.492L19.2841 25.4655C19.416 25.4125 19.5479 25.3329 19.6798 25.2534L19.7853 25.2004C19.8909 25.1474 19.9964 25.0678 20.1283 25.0148L20.2074 24.9883C20.3393 24.9088 20.4712 24.8292 20.6031 24.7497L20.7087 24.6967C20.8142 24.6436 20.9197 24.5641 21.0252 24.4846L21.1044 24.4316C21.2363 24.352 21.3682 24.2725 21.5001 24.193L21.5792 24.1399C21.6847 24.0604 21.7903 23.9809 21.9222 23.9278L22.0013 23.8748C22.1332 23.7953 22.2651 23.6892 22.397 23.6097L22.4761 23.5567C22.5817 23.4771 22.6872 23.3976 22.8191 23.3181L22.8982 23.2651L23.0565 23.1325C23.0829 22.9999 23.0565 22.8674 22.951 22.8674ZM37.5657 13.4028C37.4602 13.1642 37.3547 12.9256 37.1964 12.7135C37.0909 12.5279 36.959 12.3689 36.8271 12.2098C36.6424 11.9712 36.4314 11.7591 36.2203 11.5735C36.062 11.4144 35.8774 11.2554 35.6927 11.1228C35.5081 10.9638 35.297 10.8312 35.086 10.6721L34.9541 10.5926C34.7958 10.4866 34.5847 10.5661 34.5056 10.7517C34.0571 11.9712 33.5031 13.1112 32.7909 14.1981C32.6854 14.3572 32.6326 14.5163 32.6326 14.7019C32.6326 16.7432 30.786 18.5195 27.9633 19.6065C27.462 19.7921 26.9608 19.9511 26.4596 20.0837C25.6946 20.2958 24.9295 20.4283 24.1381 20.5344C23.6896 20.5874 23.2148 20.6404 22.7399 20.6669C22.397 20.6935 22.0804 20.6934 21.7375 20.6934C19.205 20.7465 16.6988 20.2162 14.4038 19.1293C14.2455 19.0497 14.0344 19.1558 14.0344 19.3679C14.0344 19.6065 14.0608 19.8451 14.0872 20.0837C14.1663 20.6934 14.6148 21.1707 15.2215 21.3032C17.0154 21.6479 18.8357 21.8599 20.6559 21.913C21.0252 21.913 21.3682 21.9395 21.7375 21.9395H22.186C23.0038 21.9395 23.8215 21.8865 24.6393 21.8334C25.0614 21.8069 25.4835 21.7539 25.8792 21.7009C32.7381 20.879 37.7768 18.0953 37.7768 14.7814C37.7768 14.4633 37.724 14.1716 37.6449 13.88C37.6712 13.6414 37.6185 13.5088 37.5657 13.4028Z" fill="#EDD0C6"/>
<path d="M88.0298 6.27139C85.9722 6.24488 84.0728 7.33185 83.0176 9.10811V7.17277C83.0176 6.85464 82.7801 6.61604 82.4636 6.61604H79.9047C79.5881 6.61604 79.3507 6.85464 79.3507 7.17277V22.1517C79.3507 22.4699 79.5881 22.7085 79.9047 22.7085H82.4636C82.7801 22.7085 83.0176 22.4699 83.0176 22.1517V13.6151C83.0176 11.123 84.4949 9.61183 86.6317 9.61183C88.8212 9.61183 90.0611 11.0434 90.0611 13.5355V22.1252C90.0611 22.4434 90.3249 22.682 90.6151 22.682H93.174C93.4906 22.682 93.728 22.4434 93.728 22.1252V12.4486C93.728 8.71044 91.644 6.27139 88.0298 6.27139ZM50.7016 13.1909C48.8286 12.5811 47.0875 12.1039 47.0875 10.9374V10.8844C47.0875 9.92996 47.9053 9.26718 49.3298 9.26718C50.7544 9.34672 52.1525 9.7709 53.366 10.5132C53.6298 10.6723 53.9728 10.5662 54.1311 10.3011L55.0544 8.6309C55.2127 8.36579 55.1071 8.02114 54.8433 7.88859C53.2077 6.90766 51.3347 6.37744 49.4354 6.35093C46.2433 6.35093 43.7372 8.20673 43.7372 11.2555V11.3086C43.7372 14.3839 46.3752 15.3648 48.7495 16.0276C50.6225 16.6108 52.3372 17.035 52.3372 18.2811V18.3341C52.3372 19.3945 51.4139 20.0838 49.8574 20.0838C48.1427 20.0308 46.4544 19.4476 45.0562 18.4401C44.7924 18.2545 44.4495 18.3341 44.2912 18.5992L43.2624 20.1634C43.1041 20.402 43.1568 20.7466 43.3943 20.9322C45.2673 22.2578 47.4832 23.0001 49.7519 23.0266C53.1022 23.0266 55.6875 21.3564 55.6875 17.9629V17.9099C55.6875 14.9936 53.0495 13.9332 50.7016 13.1909ZM67.0838 6.27139C64.8415 6.21836 62.6519 7.09324 61.0427 8.65742C59.4335 10.2481 58.5366 12.422 58.5366 14.6755V14.7285C58.5366 16.982 59.4335 19.1294 61.0427 20.6936C62.6519 22.2578 64.8151 23.1061 67.0311 23.0531C69.2734 23.1061 71.463 22.2578 73.0722 20.6671C74.6814 19.1029 75.6047 16.929 75.6047 14.649V14.596C75.6047 12.3425 74.7078 10.1951 73.0986 8.6044C71.5157 7.06674 69.3262 6.21836 67.0838 6.27139ZM71.9378 14.755C71.9378 17.5387 70.0648 19.8717 67.0838 19.8717C64.2875 19.8452 62.0979 17.4857 62.2035 14.702V14.649C62.2035 11.8388 64.0765 9.5323 67.0311 9.5323C69.8274 9.55881 72.0697 11.8918 71.9378 14.702V14.755ZM105.203 6.27139C103.093 6.27139 101.062 7.09325 99.5844 8.6044C98.1071 10.089 97.263 12.1304 97.263 14.2513V14.7285C97.1838 16.9555 98.0016 19.1294 99.5581 20.6936C101.115 22.2843 103.251 23.1326 105.467 23.0796C107.789 23.1592 110.057 22.2048 111.64 20.4815C111.851 20.2429 111.851 19.8983 111.614 19.6862L110.242 18.4666C110.031 18.2811 109.715 18.2811 109.503 18.4666C108.448 19.5006 106.997 20.0573 105.52 20.0573C103.146 20.1369 101.115 18.3606 100.903 15.9746H112.168C112.458 15.9746 112.695 15.736 112.722 15.4443C112.722 15.2588 112.748 15.0997 112.748 14.9406C112.801 10.3276 110.242 6.32441 105.203 6.27139ZM100.93 13.5355C101.273 11.0434 102.856 9.29369 105.098 9.29369C107.525 9.29369 108.923 11.1495 109.161 13.5355H100.93ZM143.218 6.37743C141.292 6.35092 139.366 6.72208 137.599 7.51743C137.335 7.62347 137.203 7.94161 137.282 8.20673L137.941 10.1155C138.047 10.4072 138.364 10.5662 138.654 10.4602C139.946 9.92997 141.318 9.66485 142.69 9.66485C145.249 9.66485 146.647 10.8844 146.647 13.1113V13.403C145.222 12.9258 143.719 12.7137 142.215 12.7402C138.495 12.7402 135.726 14.4369 135.726 18.016V18.069C135.726 21.3034 138.39 23.0266 141.424 23.0266C143.402 23.1061 145.328 22.2313 146.621 20.7201V22.1517C146.621 22.4699 146.858 22.7085 147.175 22.7085H149.707C150.024 22.7085 150.261 22.4699 150.261 22.1517V13.1644C150.261 8.86951 147.966 6.37743 143.218 6.37743ZM146.726 16.876C146.726 18.8908 144.906 20.2694 142.479 20.2694C140.738 20.2694 139.392 19.4211 139.392 17.8834V17.8304C139.392 16.2662 140.764 15.3383 143.059 15.3383C144.299 15.3383 145.565 15.5504 146.726 15.9746V16.876ZM163.399 6.2979C160.892 6.40395 159.23 7.99463 158.307 10.2216V7.14627C158.307 6.82813 158.07 6.58953 157.753 6.58953H155.194C154.878 6.58953 154.64 6.82813 154.64 7.14627V22.1252C154.64 22.4434 154.878 22.682 155.194 22.682H157.753C158.07 22.682 158.307 22.4434 158.307 22.1252V16.5578C158.307 12.5016 160.312 10.4072 163.451 10.1951C163.741 10.1686 163.979 9.92997 163.979 9.63834V6.82813C163.979 6.5365 163.715 6.2979 163.399 6.2979ZM125.595 6.27139C123.38 6.27139 121.348 7.41138 120.161 9.29369V7.17277C120.161 6.85464 119.924 6.61604 119.607 6.61604H117.048C116.732 6.61604 116.494 6.85464 116.494 7.17277V27.0298C116.494 27.348 116.732 27.5866 117.048 27.5866H119.607C119.924 27.5866 120.161 27.348 120.161 27.0298V20.2164C121.401 22.0192 123.432 23.0796 125.595 23.0531C129.421 23.0531 133.061 20.0308 133.061 14.702V14.649C133.061 9.29369 129.394 6.27139 125.595 6.27139ZM129.341 14.702C129.341 17.8569 127.284 19.8452 124.751 19.8452C122.272 19.8452 120.082 17.8039 120.082 14.702V14.649C120.082 11.5737 122.272 9.50578 124.751 9.50578C127.231 9.50578 129.341 11.5472 129.341 14.649V14.702Z" fill="#EDD0C6"/>
</svg>
